{
  "source": "C:\\Users\\Peter\\Desktop\\stuff\\MIUN\\quantitative_research\\video_compression\\videos\\UVG\\ReadySteadyGo_1920x1080_120fps_420_8bit_YUV.y4m",
  "output": "C:\\Users\\Peter\\Desktop\\stuff\\MIUN\\quantitative_research\\video_compression\\compressed_videos\\UVG\\hevc\\4\\ReadySteadyGo_1920x1080_120fps_420_8bit_YUV_hevc.mp4",
  "codec": "hevc",
  "ok": "[yuv4mpegpipe @ 0000019668326740] Stream #0: not enough frames to estimate rate; consider increasing probesize\nInput #0, yuv4mpegpipe, from 'C:\\Users\\Peter\\Desktop\\stuff\\MIUN\\quantitative_research\\video_compression\\videos\\UVG\\ReadySteadyGo_1920x1080_120fps_420_8bit_YUV.y4m':\n  Duration: 00:00:05.00, start: 0.000000, bitrate: 2985989 kb/s\n  Stream #0:0: Video: rawvideo (I420 / 0x30323449), yuv420p(progressive), 1920x1080, 120 fps, 120 tbr, 120 tbn\n[out#0/mp4 @ 0000019668329ac0] Codec AVOption b:a (set bitrate (in bits/s)) has not been used for any stream. The most likely reason is either wrong type (e.g. a video option with no video streams) or that it is a private option of some decoder which was not actually used for any stream.\nStream mapping:\n  Stream #0:0 -> #0:0 (rawvideo (native) -> hevc (libx265))\nPress [q] to stop, [?] for help\n[libx265 @ 000001966832cb00] Unknown option: \"aq-mode.\nx265 [info]: HEVC encoder version 4.1+190-8f11c33ac\nx265 [info]: build info [Windows][GCC 15.1.0][64 bit] 10bit\nx265 [info]: using cpu capabilities: MMX2 SSE2Fast LZCNT SSSE3 SSE4.2 AVX FMA3 BMI2 AVX2\nx265 [info]: Main 10 profile, Level-5 (Main tier)\nx265 [info]: Thread pool created using 12 threads\nx265 [info]: Slices                              : 1\nx265 [info]: frame threads / pool features       : 3 / wpp(17 rows)\nx265 [info]: Coding QT: max CU size, min CU size : 64 / 8\nx265 [info]: Residual QT: max TU size, max depth : 32 / 1 inter / 1 intra\nx265 [info]: ME / range / subpel / merge         : star / 57 / 3 / 3\nx265 [info]: Keyframe min / max / scenecut / bias  : 25 / 250 / 40 / 5.00 \nx265 [info]: Lookahead / bframes / badapt        : 25 / 4 / 2\nx265 [info]: b-pyramid / weightp / weightb       : 1 / 1 / 0\nx265 [info]: References / ref-limit  cu / depth  : 4 / on / on\nx265 [info]: AQ: mode / str / qg-size / cu-tree  : 2 / 1.0 / 32 / 1\nx265 [info]: Rate Control / qCompress            : ABR-4000 kbps / 0.60\nx265 [info]: VBV/HRD buffer / max-rate / init    : 4000 / 4000 / 0.750\nx265 [info]: tools: rect limit-modes rd=4 psy-rd=2.00 rdoq=2 psy-rdoq=1.00\nx265 [info]: tools: rskip mode=1 signhide tmvp strong-intra-smoothing lslices=4\nx265 [info]: tools: deblock sao dhdr10-info\nOutput #0, mp4, to 'C:\\Users\\Peter\\Desktop\\stuff\\MIUN\\quantitative_research\\video_compression\\compressed_videos\\UVG\\hevc\\4\\ReadySteadyGo_1920x1080_120fps_420_8bit_YUV_hevc.mp4':\n  Metadata:\n    encoder         : Lavf62.3.100\n  Stream #0:0: Video: hevc (hev1 / 0x31766568), yuv420p10le(tv, progressive), 1920x1080, q=2-31, 4000 kb/s, 120 fps, 15360 tbn\n    Metadata:\n      encoder         : Lavc62.11.100 libx265\n    Side data:\n      cpb: bitrate max/min/avg: 4000000/0/4000000 buffer size: 4000000 vbv_delay: N/A\nframe=    0 fps=0.0 q=0.0 size=       0KiB time=N/A bitrate=N/A speed=N/A elapsed=0:00:00.51    \nframe=    0 fps=0.0 q=0.0 size=       0KiB time=N/A bitrate=N/A speed=N/A elapsed=0:00:01.02    \nframe=    0 fps=0.0 q=0.0 size=       0KiB time=N/A bitrate=N/A speed=N/A elapsed=0:00:01.55    \nframe=    0 fps=0.0 q=0.0 size=       0KiB time=N/A bitrate=N/A speed=N/A elapsed=0:00:02.06    \nframe=    0 fps=0.0 q=0.0 size=       0KiB time=N/A bitrate=N/A speed=N/A elapsed=0:00:02.60    \nframe=    0 fps=0.0 q=0.0 size=       0KiB time=N/A bitrate=N/A speed=N/A elapsed=0:00:03.12    \nframe=    0 fps=0.0 q=0.0 size=       0KiB time=N/A bitrate=N/A speed=N/A elapsed=0:00:03.63    \nframe=    0 fps=0.0 q=0.0 size=       0KiB time=N/A bitrate=N/A speed=N/A elapsed=0:00:04.15    \nframe=    0 fps=0.0 q=0.0 size=       0KiB time=N/A bitrate=N/A speed=N/A elapsed=0:00:04.67    \nframe=    0 fps=0.0 q=0.0 size=       0KiB time=N/A bitrate=N/A speed=N/A elapsed=0:00:05.20    \nframe=    0 fps=0.0 q=0.0 size=       0KiB time=N/A bitrate=N/A speed=N/A elapsed=0:00:05.72    \nframe=    0 fps=0.0 q=0.0 size=       0KiB time=N/A bitrate=N/A speed=N/A elapsed=0:00:06.24    \nframe=    0 fps=0.0 q=0.0 size=       0KiB time=N/A bitrate=N/A speed=N/A elapsed=0:00:06.77    \nframe=    0 fps=0.0 q=0.0 size=       0KiB time=N/A bitrate=N/A speed=N/A elapsed=0:00:07.28    \nframe=    1 fps=0.1 q=44.1 size=       0KiB time=-00:00:00.00 bitrate=N/A speed=N/A elapsed=0:00:07.79    \nframe=    1 fps=0.1 q=44.1 size=       0KiB time=-00:00:00.00 bitrate=N/A speed=N/A elapsed=0:00:08.31    \nframe=    3 fps=0.3 q=50.9 size=       0KiB time=00:00:00.00 bitrate=  42.2kbits/s speed=0.000944x elapsed=0:00:08.82    \nframe=    4 fps=0.4 q=51.0 size=       0KiB time=00:00:00.01 bitrate=  21.1kbits/s speed=0.00178x elapsed=0:00:09.33    \nframe=    4 fps=0.4 q=51.0 size=       0KiB time=00:00:00.01 bitrate=  21.1kbits/s speed=0.00169x elapsed=0:00:09.87    \nframe=    5 fps=0.5 q=48.9 size=       0KiB time=00:00:00.02 bitrate=  14.1kbits/s speed=0.0024x elapsed=0:00:10.39    \nframe=    7 fps=0.6 q=46.0 size=       0KiB time=00:00:00.04 bitrate=   8.4kbits/s speed=0.00382x elapsed=0:00:10.91    \nframe=    8 fps=0.7 q=45.4 size=       0KiB time=00:00:00.05 bitrate=   7.0kbits/s speed=0.00437x elapsed=0:00:11.43    \nframe=    8 fps=0.7 q=45.4 size=       0KiB time=00:00:00.05 bitrate=   7.0kbits/s speed=0.00418x elapsed=0:00:11.95    \nframe=    9 fps=0.7 q=47.9 size=       0KiB time=00:00:00.05 bitrate=   6.0kbits/s speed=0.00467x elapsed=0:00:12.48    \nframe=   10 fps=0.8 q=40.1 size=       0KiB time=00:00:00.06 bitrate=   5.3kbits/s speed=0.00513x elapsed=0:00:13.00    \nframe=   11 fps=0.8 q=46.1 size=       0KiB time=00:00:00.07 bitrate=   4.7kbits/s speed=0.00554x elapsed=0:00:13.53    \nframe=   12 fps=0.9 q=47.0 size=       0KiB time=00:00:00.08 bitrate=   4.2kbits/s speed=0.00593x elapsed=0:00:14.05    \nframe=   13 fps=0.9 q=47.1 size=       0KiB time=00:00:00.09 bitrate=   3.8kbits/s speed=0.00629x elapsed=0:00:14.57    \nframe=   14 fps=0.9 q=39.6 size=       0KiB time=00:00:00.10 bitrate=   3.5kbits/s speed=0.00663x elapsed=0:00:15.08    \nframe=   15 fps=1.0 q=46.0 size=       0KiB time=00:00:00.10 bitrate=   3.2kbits/s speed=0.00694x elapsed=0:00:15.60    \nframe=   16 fps=1.0 q=46.4 size=       0KiB time=00:00:00.11 bitrate=   3.0kbits/s speed=0.00723x elapsed=0:00:16.13    \nframe=   16 fps=1.0 q=46.4 size=       0KiB time=00:00:00.11 bitrate=   3.0kbits/s speed=0.00701x elapsed=0:00:16.63    \nframe=   17 fps=1.0 q=45.7 size=       0KiB time=00:00:00.12 bitrate=   2.8kbits/s speed=0.00728x elapsed=0:00:17.17    \nframe=   17 fps=1.0 q=45.7 size=       0KiB time=00:00:00.12 bitrate=   2.8kbits/s speed=0.00707x elapsed=0:00:17.68    \nframe=   19 fps=1.0 q=38.5 size=       0KiB time=00:00:00.14 bitrate=   2.5kbits/s speed=0.00779x elapsed=0:00:18.19    \nframe=   20 fps=1.1 q=44.2 size=       0KiB time=00:00:00.15 bitrate=   2.3kbits/s speed=0.00801x elapsed=0:00:18.72    \nframe=   21 fps=1.1 q=45.3 size=       0KiB time=00:00:00.15 bitrate=   2.2kbits/s speed=0.00822x elapsed=0:00:19.25    \nframe=   22 fps=1.1 q=45.2 size=       0KiB time=00:00:00.16 bitrate=   2.1kbits/s speed=0.00843x elapsed=0:00:19.76    \nframe=   24 fps=1.2 q=43.3 size=       0KiB time=00:00:00.18 bitrate=   1.9kbits/s speed=0.00903x elapsed=0:00:20.29    \nframe=   24 fps=1.2 q=43.3 size=       0KiB time=00:00:00.18 bitrate=   1.9kbits/s speed=0.00881x elapsed=0:00:20.81    \nframe=   24 fps=1.1 q=43.3 size=       0KiB time=00:00:00.18 bitrate=   1.9kbits/s speed=0.0086x elapsed=0:00:21.32    \nframe=   25 fps=1.1 q=45.2 size=       0KiB time=00:00:00.19 bitrate=   1.8kbits/s speed=0.00878x elapsed=0:00:21.84    \nframe=   26 fps=1.2 q=44.5 size=       0KiB time=00:00:00.20 bitrate=   1.8kbits/s speed=0.00895x elapsed=0:00:22.35    \nframe=   27 fps=1.2 q=37.6 size=       0KiB time=00:00:00.20 bitrate=   1.7kbits/s speed=0.0091x elapsed=0:00:22.88    \nframe=   28 fps=1.2 q=42.7 size=       0KiB time=00:00:00.21 bitrate=   1.6kbits/s speed=0.00927x elapsed=0:00:23.38    \nframe=   29 fps=1.2 q=44.4 size=       0KiB time=00:00:00.22 bitrate=   1.6kbits/s speed=0.00941x elapsed=0:00:23.90    \nframe=   29 fps=1.2 q=44.4 size=       0KiB time=00:00:00.22 bitrate=   1.6kbits/s speed=0.00921x elapsed=0:00:24.42    \nframe=   30 fps=1.2 q=43.6 size=       0KiB time=00:00:00.23 bitrate=   1.5kbits/s speed=0.00935x elapsed=0:00:24.94    \nframe=   31 fps=1.2 q=43.3 size=       0KiB time=00:00:00.24 bitrate=   1.5kbits/s speed=0.00949x elapsed=0:00:25.46    \nframe=   31 fps=1.2 q=43.3 size=       0KiB time=00:00:00.24 bitrate=   1.5kbits/s speed=0.0093x elapsed=0:00:25.98    \nframe=   32 fps=1.2 q=37.3 size=       0KiB time=00:00:00.25 bitrate=   1.4kbits/s speed=0.00943x elapsed=0:00:26.50    \nframe=   33 fps=1.2 q=42.6 size=       0KiB time=00:00:00.25 bitrate=   1.4kbits/s speed=0.00956x elapsed=0:00:27.03    \nframe=   33 fps=1.2 q=42.6 size=       0KiB time=00:00:00.25 bitrate=   1.4kbits/s speed=0.00938x elapsed=0:00:27.54    \nframe=   34 fps=1.2 q=43.8 size=       0KiB time=00:00:00.26 bitrate=   1.3kbits/s speed=0.0095x elapsed=0:00:28.07    \nframe=   35 fps=1.2 q=43.1 size=       0KiB time=00:00:00.27 bitrate=   1.3kbits/s speed=0.00962x elapsed=0:00:28.59    \nframe=   36 fps=1.2 q=37.1 size=       0KiB time=00:00:00.28 bitrate=   1.2kbits/s speed=0.00973x elapsed=0:00:29.10    \nframe=   37 fps=1.2 q=41.5 size=       0KiB time=00:00:00.29 bitrate=   1.2kbits/s speed=0.00985x elapsed=0:00:29.62    \nframe=   38 fps=1.3 q=42.9 size=       0KiB time=00:00:00.30 bitrate=   1.2kbits/s speed=0.00995x elapsed=0:00:30.14    \nframe=   38 fps=1.2 q=42.9 size=       0KiB time=00:00:00.30 bitrate=   1.2kbits/s speed=0.00978x elapsed=0:00:30.66    \nframe=   39 fps=1.3 q=41.8 size=       0KiB time=00:00:00.30 bitrate=   1.1kbits/s speed=0.00989x elapsed=0:00:31.18    \nframe=   40 fps=1.3 q=36.2 size=       0KiB time=00:00:00.31 bitrate=   1.1kbits/s speed=0.00999x elapsed=0:00:31.70    \nframe=   42 fps=1.3 q=42.4 size=       0KiB time=00:00:00.33 bitrate=   1.1kbits/s speed=0.0103x elapsed=0:00:32.22    \nframe=   42 fps=1.3 q=42.4 size=       0KiB time=00:00:00.33 bitrate=   1.1kbits/s speed=0.0102x elapsed=0:00:32.77    \nframe=   42 fps=1.3 q=42.4 size=       0KiB time=00:00:00.33 bitrate=   1.1kbits/s speed=0.01x elapsed=0:00:33.29    \nframe=   44 fps=1.3 q=41.6 size=       0KiB time=00:00:00.35 bitrate=   1.0kbits/s speed=0.0103x elapsed=0:00:33.82    \nframe=   45 fps=1.3 q=36.0 size=       0KiB time=00:00:00.35 bitrate=   1.0kbits/s speed=0.0104x elapsed=0:00:34.34    \nframe=   46 fps=1.3 q=41.1 size=       0KiB time=00:00:00.36 bitrate=   1.0kbits/s speed=0.0105x elapsed=0:00:34.86    \nframe=   46 fps=1.3 q=41.1 size=       0KiB time=00:00:00.36 bitrate=   1.0kbits/s speed=0.0104x elapsed=0:00:35.38    \nframe=   47 fps=1.3 q=42.0 size=       0KiB time=00:00:00.37 bitrate=   0.9kbits/s speed=0.0104x elapsed=0:00:35.91    \nframe=   47 fps=1.3 q=42.0 size=       0KiB time=00:00:00.37 bitrate=   0.9kbits/s speed=0.0103x elapsed=0:00:36.46    \nframe=   48 fps=1.3 q=42.0 size=       0KiB time=00:00:00.38 bitrate=   0.9kbits/s speed=0.0104x elapsed=0:00:36.99    \nframe=   48 fps=1.3 q=42.0 size=       0KiB time=00:00:00.38 bitrate=   0.9kbits/s speed=0.0102x elapsed=0:00:37.51    \nframe=   49 fps=1.3 q=35.9 size=       0KiB time=00:00:00.39 bitrate=   0.9kbits/s speed=0.0103x elapsed=0:00:38.02    \nframe=   50 fps=1.3 q=39.5 size=       0KiB time=00:00:00.40 bitrate=   0.9kbits/s speed=0.0104x elapsed=0:00:38.55    \nframe=   50 fps=1.3 q=39.5 size=       0KiB time=00:00:00.40 bitrate=   0.9kbits/s speed=0.0102x elapsed=0:00:39.10    \nframe=   50 fps=1.3 q=39.5 size=       0KiB time=00:00:00.40 bitrate=   0.9kbits/s speed=0.0101x elapsed=0:00:39.66    \nframe=   50 fps=1.2 q=39.5 size=       0KiB time=00:00:00.40 bitrate=   0.9kbits/s speed=0.00994x elapsed=0:00:40.23    \nframe=   50 fps=1.2 q=39.5 size=       0KiB time=00:00:00.40 bitrate=   0.9kbits/s speed=0.00981x elapsed=0:00:40.77    \nframe=   50 fps=1.2 q=39.5 size=       0KiB time=00:00:00.40 bitrate=   0.9kbits/s speed=0.00968x elapsed=0:00:41.32    \nframe=   51 fps=1.2 q=41.2 size=       0KiB time=00:00:00.40 bitrate=   0.9kbits/s speed=0.00975x elapsed=0:00:41.87    \nframe=   51 fps=1.2 q=41.2 size=       0KiB time=00:00:00.40 bitrate=   0.9kbits/s speed=0.00963x elapsed=0:00:42.39    \nframe=   51 fps=1.2 q=41.2 size=       0KiB time=00:00:00.40 bitrate=   0.9kbits/s speed=0.00951x elapsed=0:00:42.93    \nframe=   51 fps=1.2 q=41.2 size=       0KiB time=00:00:00.40 bitrate=   0.9kbits/s speed=0.00939x elapsed=0:00:43.47    \nframe=   51 fps=1.2 q=41.2 size=       0KiB time=00:00:00.40 bitrate=   0.9kbits/s speed=0.00928x elapsed=0:00:43.99    \nframe=   51 fps=1.1 q=41.2 size=       0KiB time=00:00:00.40 bitrate=   0.9kbits/s speed=0.00916x elapsed=0:00:44.55    \nframe=   52 fps=1.2 q=40.9 size=       0KiB time=00:00:00.41 bitrate=   0.8kbits/s speed=0.00924x elapsed=0:00:45.09    \nframe=   52 fps=1.1 q=40.9 size=       0KiB time=00:00:00.41 bitrate=   0.8kbits/s speed=0.00913x elapsed=0:00:45.62    \nframe=   52 fps=1.1 q=40.9 size=       0KiB time=00:00:00.41 bitrate=   0.8kbits/s speed=0.00903x elapsed=0:00:46.13    \nframe=   52 fps=1.1 q=40.9 size=       0KiB time=00:00:00.41 bitrate=   0.8kbits/s speed=0.00893x elapsed=0:00:46.66    \nframe=   52 fps=1.1 q=40.9 size=       0KiB time=00:00:00.41 bitrate=   0.8kbits/s speed=0.00883x elapsed=0:00:47.18    \nframe=   52 fps=1.1 q=40.9 size=       0KiB time=00:00:00.41 bitrate=   0.8kbits/s speed=0.00873x elapsed=0:00:47.70    \nframe=   53 fps=1.1 q=41.0 size=       0KiB time=00:00:00.42 bitrate=   0.8kbits/s speed=0.00881x elapsed=0:00:48.21    \nframe=   53 fps=1.1 q=41.0 size=       0KiB time=00:00:00.42 bitrate=   0.8kbits/s speed=0.00872x elapsed=0:00:48.75    \nframe=   53 fps=1.1 q=41.0 size=       0KiB time=00:00:00.42 bitrate=   0.8kbits/s speed=0.00862x elapsed=0:00:49.27    \nframe=   53 fps=1.1 q=41.0 size=       0KiB time=00:00:00.42 bitrate=   0.8kbits/s speed=0.00853x elapsed=0:00:49.81    \nframe=   53 fps=1.1 q=41.0 size=       0KiB time=00:00:00.42 bitrate=   0.8kbits/s speed=0.00844x elapsed=0:00:50.36    \nframe=   53 fps=1.0 q=41.0 size=       0KiB time=00:00:00.42 bitrate=   0.8kbits/s speed=0.00835x elapsed=0:00:50.90    \nframe=   54 fps=1.0 q=35.6 size=       0KiB time=00:00:00.43 bitrate=   0.8kbits/s speed=0.00842x elapsed=0:00:51.43    \nframe=   55 fps=1.1 q=40.3 size=       0KiB time=00:00:00.44 bitrate=   0.8kbits/s speed=0.0085x elapsed=0:00:51.94    \nframe=   55 fps=1.0 q=40.3 size=       0KiB time=00:00:00.44 bitrate=   0.8kbits/s speed=0.00842x elapsed=0:00:52.47    \nframe=   56 fps=1.1 q=41.9 size=       0KiB time=00:00:00.45 bitrate=   0.8kbits/s speed=0.00849x elapsed=0:00:52.99    \nframe=   56 fps=1.0 q=41.9 size=       0KiB time=00:00:00.45 bitrate=   0.8kbits/s speed=0.00841x elapsed=0:00:53.50    \nframe=   57 fps=1.1 q=41.7 size=       0KiB time=00:00:00.45 bitrate=   0.8kbits/s speed=0.00848x elapsed=0:00:54.02    \nframe=   59 fps=1.1 q=39.6 size=       0KiB time=00:00:00.47 bitrate=   0.7kbits/s speed=0.00871x elapsed=0:00:54.54    \nframe=   60 fps=1.1 q=41.5 size=       0KiB time=00:00:00.48 bitrate=   0.7kbits/s speed=0.00878x elapsed=0:00:55.06    \nframe=   60 fps=1.1 q=41.5 size=       0KiB time=00:00:00.48 bitrate=   0.7kbits/s speed=0.0087x elapsed=0:00:55.58    \nframe=   61 fps=1.1 q=41.1 size=       0KiB time=00:00:00.49 bitrate=   0.7kbits/s speed=0.00876x elapsed=0:00:56.10    \nframe=   62 fps=1.1 q=41.1 size=       0KiB time=00:00:00.50 bitrate=   0.7kbits/s speed=0.00883x elapsed=0:00:56.63    \nframe=   63 fps=1.1 q=34.9 size=       0KiB time=00:00:00.50 bitrate=   0.7kbits/s speed=0.00889x elapsed=0:00:57.15    \nframe=   64 fps=1.1 q=40.0 size=       0KiB time=00:00:00.51 bitrate=   0.7kbits/s speed=0.00896x elapsed=0:00:57.67    \nframe=   64 fps=1.1 q=40.0 size=       0KiB time=00:00:00.51 bitrate=   0.7kbits/s speed=0.00888x elapsed=0:00:58.20    \nframe=   65 fps=1.1 q=41.6 size=       0KiB time=00:00:00.52 bitrate=   0.7kbits/s speed=0.00894x elapsed=0:00:58.72    \nframe=   66 fps=1.1 q=41.1 size=       0KiB time=00:00:00.53 bitrate=   0.7kbits/s speed=0.009x elapsed=0:00:59.24    \nframe=   67 fps=1.1 q=34.8 size=       0KiB time=00:00:00.54 bitrate=   0.6kbits/s speed=0.00906x elapsed=0:00:59.76    \nframe=   68 fps=1.1 q=39.6 size=       0KiB time=00:00:00.55 bitrate=   0.6kbits/s speed=0.00912x elapsed=0:01:00.29    \nframe=   69 fps=1.1 q=41.1 size=       0KiB time=00:00:00.55 bitrate=   0.6kbits/s speed=0.00918x elapsed=0:01:00.82    \nframe=   69 fps=1.1 q=41.1 size=       0KiB time=00:00:00.55 bitrate=   0.6kbits/s speed=0.0091x elapsed=0:01:01.34    \nframe=   70 fps=1.1 q=40.8 size=       0KiB time=00:00:00.56 bitrate=   0.6kbits/s speed=0.00916x elapsed=0:01:01.85    \nframe=   70 fps=1.1 q=40.8 size=       0KiB time=00:00:00.56 bitrate=   0.6kbits/s speed=0.00909x elapsed=0:01:02.36    \nframe=   71 fps=1.1 q=41.1 size=       0KiB time=00:00:00.57 bitrate=   0.6kbits/s speed=0.00914x elapsed=0:01:02.89    \nframe=   71 fps=1.1 q=41.1 size=       0KiB time=00:00:00.57 bitrate=   0.6kbits/s speed=0.00907x elapsed=0:01:03.42    \nframe=   73 fps=1.1 q=39.7 size=     256KiB time=00:00:00.59 bitrate=3545.1kbits/s speed=0.00925x elapsed=0:01:03.94    \nframe=   73 fps=1.1 q=39.7 size=     256KiB time=00:00:00.59 bitrate=3545.1kbits/s speed=0.00918x elapsed=0:01:04.46    \nframe=   74 fps=1.1 q=41.9 size=     256KiB time=00:00:00.60 bitrate=3495.8kbits/s speed=0.00923x elapsed=0:01:04.98    \nframe=   74 fps=1.1 q=41.9 size=     256KiB time=00:00:00.60 bitrate=3495.8kbits/s speed=0.00916x elapsed=0:01:05.49    \nframe=   75 fps=1.1 q=41.1 size=     256KiB time=00:00:00.60 bitrate=3448.0kbits/s speed=0.00922x elapsed=0:01:06.01    \nframe=   76 fps=1.1 q=34.8 size=     256KiB time=00:00:00.61 bitrate=3401.4kbits/s speed=0.00927x elapsed=0:01:06.52    \nframe=   77 fps=1.1 q=38.5 size=     256KiB time=00:00:00.62 bitrate=3356.0kbits/s speed=0.00932x elapsed=0:01:07.05    \nframe=   78 fps=1.2 q=42.0 size=     256KiB time=00:00:00.63 bitrate=3311.9kbits/s speed=0.00937x elapsed=0:01:07.57    \nframe=   79 fps=1.2 q=41.6 size=     256KiB time=00:00:00.64 bitrate=3268.8kbits/s speed=0.00942x elapsed=0:01:08.08    \nframe=   80 fps=1.2 q=41.8 size=     256KiB time=00:00:00.65 bitrate=3226.9kbits/s speed=0.00947x elapsed=0:01:08.60    \nframe=   81 fps=1.2 q=36.0 size=     256KiB time=00:00:00.65 bitrate=3186.1kbits/s speed=0.00952x elapsed=0:01:09.12    \nframe=   82 fps=1.2 q=39.8 size=     256KiB time=00:00:00.66 bitrate=3146.3kbits/s speed=0.00957x elapsed=0:01:09.63    \nframe=   82 fps=1.2 q=39.8 size=     256KiB time=00:00:00.66 bitrate=3146.3kbits/s speed=0.0095x elapsed=0:01:10.15    \nframe=   83 fps=1.2 q=41.8 size=     256KiB time=00:00:00.67 bitrate=3107.4kbits/s speed=0.00955x elapsed=0:01:10.68    \nframe=   84 fps=1.2 q=41.7 size=     256KiB time=00:00:00.68 bitrate=3069.5kbits/s speed=0.0096x elapsed=0:01:11.19    \nframe=   85 fps=1.2 q=35.9 size=     256KiB time=00:00:00.69 bitrate=3032.5kbits/s speed=0.00964x elapsed=0:01:11.71    \nframe=   86 fps=1.2 q=40.1 size=     256KiB time=00:00:00.70 bitrate=2996.4kbits/s speed=0.00969x elapsed=0:01:12.23    \nframe=   87 fps=1.2 q=41.7 size=     256KiB time=00:00:00.70 bitrate=2961.2kbits/s speed=0.00974x elapsed=0:01:12.75    \nframe=   87 fps=1.2 q=41.7 size=     256KiB time=00:00:00.70 bitrate=2961.2kbits/s speed=0.00967x elapsed=0:01:13.26    \nframe=   88 fps=1.2 q=41.7 size=     256KiB time=00:00:00.71 bitrate=2926.7kbits/s speed=0.00971x elapsed=0:01:13.78    \nframe=   88 fps=1.2 q=41.7 size=     256KiB time=00:00:00.71 bitrate=2926.7kbits/s speed=0.00964x elapsed=0:01:14.31    \nframe=   89 fps=1.2 q=35.2 size=     256KiB time=00:00:00.72 bitrate=2893.1kbits/s speed=0.00969x elapsed=0:01:14.83    \nframe=   91 fps=1.2 q=41.8 size=     256KiB time=00:00:00.74 bitrate=2828.1kbits/s speed=0.00984x elapsed=0:01:15.35    \nframe=   92 fps=1.2 q=41.7 size=     256KiB time=00:00:00.75 bitrate=2796.7kbits/s speed=0.00988x elapsed=0:01:15.89    \nframe=   92 fps=1.2 q=41.7 size=     256KiB time=00:00:00.75 bitrate=2796.7kbits/s speed=0.00982x elapsed=0:01:16.40    \nframe=   94 fps=1.2 q=37.9 size=     256KiB time=00:00:00.76 bitrate=2735.9kbits/s speed=0.00997x elapsed=0:01:16.91    \nframe=   95 fps=1.2 q=41.9 size=     256KiB time=00:00:00.77 bitrate=2706.5kbits/s speed=0.01x elapsed=0:01:17.43    \nframe=   95 fps=1.2 q=41.9 size=     256KiB time=00:00:00.77 bitrate=2706.5kbits/s speed=0.00994x elapsed=0:01:17.95    \nframe=   96 fps=1.2 q=41.6 size=     256KiB time=00:00:00.78 bitrate=2677.7kbits/s speed=0.00998x elapsed=0:01:18.47    \nframe=   97 fps=1.2 q=41.9 size=     256KiB time=00:00:00.79 bitrate=2649.5kbits/s speed=0.01x elapsed=0:01:19.01    \nframe=   97 fps=1.2 q=41.9 size=     256KiB time=00:00:00.79 bitrate=2649.5kbits/s speed=0.00995x elapsed=0:01:19.53    \nframe=   98 fps=1.2 q=35.9 size=     256KiB time=00:00:00.80 bitrate=2621.9kbits/s speed=0.00999x elapsed=0:01:20.07    \nframe=   99 fps=1.2 q=40.1 size=     256KiB time=00:00:00.80 bitrate=2594.9kbits/s speed=0.01x elapsed=0:01:20.59    \nframe=   99 fps=1.2 q=40.1 size=     256KiB time=00:00:00.80 bitrate=2594.9kbits/s speed=0.00996x elapsed=0:01:21.12    \nframe=  100 fps=1.2 q=42.0 size=     256KiB time=00:00:00.81 bitrate=2568.4kbits/s speed=0.01x elapsed=0:01:21.64    \nframe=  100 fps=1.2 q=42.0 size=     256KiB time=00:00:00.81 bitrate=2568.4kbits/s speed=0.00994x elapsed=0:01:22.15    \nframe=  101 fps=1.2 q=41.9 size=     256KiB time=00:00:00.82 bitrate=2542.4kbits/s speed=0.00998x elapsed=0:01:22.67    \nframe=  101 fps=1.2 q=41.9 size=     256KiB time=00:00:00.82 bitrate=2542.4kbits/s speed=0.00992x elapsed=0:01:23.18    \nframe=  103 fps=1.2 q=41.4 size=     256KiB time=00:00:00.84 bitrate=2492.1kbits/s speed=0.0101x elapsed=0:01:23.70    \nframe=  104 fps=1.2 q=42.6 size=     256KiB time=00:00:00.85 bitrate=2467.7kbits/s speed=0.0101x elapsed=0:01:24.22    \nframe=  104 fps=1.2 q=42.6 size=     256KiB time=00:00:00.85 bitrate=2467.7kbits/s speed=0.01x elapsed=0:01:24.73    \nframe=  105 fps=1.2 q=42.7 size=     256KiB time=00:00:00.85 bitrate=2443.7kbits/s speed=0.0101x elapsed=0:01:25.25    \nframe=  106 fps=1.2 q=42.8 size=     256KiB time=00:00:00.86 bitrate=2420.2kbits/s speed=0.0101x elapsed=0:01:25.77    \nframe=  106 fps=1.2 q=42.8 size=     256KiB time=00:00:00.86 bitrate=2420.2kbits/s speed=0.01x elapsed=0:01:26.29    \nframe=  107 fps=1.2 q=36.4 size=     256KiB time=00:00:00.87 bitrate=2397.1kbits/s speed=0.0101x elapsed=0:01:26.80    \nframe=  108 fps=1.2 q=40.9 size=     256KiB time=00:00:00.88 bitrate=2374.5kbits/s speed=0.0101x elapsed=0:01:27.32    \nframe=  108 fps=1.2 q=40.9 size=     256KiB time=00:00:00.88 bitrate=2374.5kbits/s speed=0.0101x elapsed=0:01:27.83    \nframe=  108 fps=1.2 q=40.9 size=     256KiB time=00:00:00.88 bitrate=2374.5kbits/s speed=0.01x elapsed=0:01:28.37    \nframe=  109 fps=1.2 q=42.6 size=     256KiB time=00:00:00.89 bitrate=2352.3kbits/s speed=0.01x elapsed=0:01:28.89    \nframe=  109 fps=1.2 q=42.6 size=     256KiB time=00:00:00.89 bitrate=2352.3kbits/s speed=0.00997x elapsed=0:01:29.40    \nframe=  110 fps=1.2 q=42.8 size=     256KiB time=00:00:00.90 bitrate=2330.6kbits/s speed=0.01x elapsed=0:01:29.91    \nframe=  111 fps=1.2 q=36.7 size=     256KiB time=00:00:00.90 bitrate=2309.2kbits/s speed=0.01x elapsed=0:01:30.43    \nframe=  112 fps=1.2 q=41.1 size=     256KiB time=00:00:00.91 bitrate=2288.2kbits/s speed=0.0101x elapsed=0:01:30.94    \nframe=  112 fps=1.2 q=41.1 size=     256KiB time=00:00:00.91 bitrate=2288.2kbits/s speed=0.01x elapsed=0:01:31.46    \nframe=  113 fps=1.2 q=42.7 size=     256KiB time=00:00:00.92 bitrate=2267.6kbits/s speed=0.0101x elapsed=0:01:31.99    \nframe=  114 fps=1.2 q=42.8 size=     256KiB time=00:00:00.93 bitrate=2247.3kbits/s speed=0.0101x elapsed=0:01:32.50    \nframe=  114 fps=1.2 q=42.8 size=     256KiB time=00:00:00.93 bitrate=2247.3kbits/s speed=0.01x elapsed=0:01:33.01    \nframe=  115 fps=1.2 q=36.7 size=     256KiB time=00:00:00.94 bitrate=2227.4kbits/s speed=0.0101x elapsed=0:01:33.56    \nframe=  116 fps=1.2 q=41.2 size=     256KiB time=00:00:00.95 bitrate=2207.9kbits/s speed=0.0101x elapsed=0:01:34.08    \nframe=  117 fps=1.2 q=42.9 size=     256KiB time=00:00:00.95 bitrate=2188.7kbits/s speed=0.0101x elapsed=0:01:34.61    \nframe=  118 fps=1.2 q=42.8 size=     256KiB time=00:00:00.96 bitrate=2169.8kbits/s speed=0.0102x elapsed=0:01:35.13    \nframe=  119 fps=1.2 q=36.9 size=     256KiB time=00:00:00.97 bitrate=2151.3kbits/s speed=0.0102x elapsed=0:01:35.65    \nframe=  120 fps=1.2 q=41.4 size=     256KiB time=00:00:00.98 bitrate=2133.1kbits/s speed=0.0102x elapsed=0:01:36.17    \nframe=  120 fps=1.2 q=41.4 size=     256KiB time=00:00:00.98 bitrate=2133.1kbits/s speed=0.0102x elapsed=0:01:36.68    \nframe=  121 fps=1.2 q=42.8 size=     256KiB time=00:00:00.99 bitrate=2115.1kbits/s speed=0.0102x elapsed=0:01:37.19    \nframe=  122 fps=1.2 q=36.7 size=     256KiB time=00:00:01.00 bitrate=2097.5kbits/s speed=0.0102x elapsed=0:01:37.71    \nframe=  123 fps=1.3 q=41.2 size=     256KiB time=00:00:01.00 bitrate=2080.2kbits/s speed=0.0103x elapsed=0:01:38.23    \nframe=  123 fps=1.2 q=41.2 size=     256KiB time=00:00:01.00 bitrate=2080.2kbits/s speed=0.0102x elapsed=0:01:38.74    \nframe=  124 fps=1.2 q=42.8 size=     256KiB time=00:00:01.01 bitrate=2063.1kbits/s speed=0.0102x elapsed=0:01:39.27    \nframe=  125 fps=1.3 q=43.0 size=     256KiB time=00:00:01.02 bitrate=2046.3kbits/s speed=0.0103x elapsed=0:01:39.78    \nframe=  126 fps=1.3 q=36.9 size=     256KiB time=00:00:01.03 bitrate=2029.8kbits/s speed=0.0103x elapsed=0:01:40.30    \nframe=  127 fps=1.3 q=41.8 size=     256KiB time=00:00:01.04 bitrate=2013.6kbits/s speed=0.0103x elapsed=0:01:40.82    \nframe=  128 fps=1.3 q=43.1 size=     256KiB time=00:00:01.05 bitrate=1997.6kbits/s speed=0.0104x elapsed=0:01:41.34    \nframe=  128 fps=1.3 q=43.1 size=     256KiB time=00:00:01.05 bitrate=1997.6kbits/s speed=0.0103x elapsed=0:01:41.86    \nframe=  129 fps=1.3 q=43.0 size=     256KiB time=00:00:01.05 bitrate=1981.9kbits/s speed=0.0103x elapsed=0:01:42.37    \nframe=  129 fps=1.3 q=43.0 size=     256KiB time=00:00:01.05 bitrate=1981.9kbits/s speed=0.0103x elapsed=0:01:42.88    \nframe=  130 fps=1.3 q=42.9 size=     256KiB time=00:00:01.06 bitrate=1966.4kbits/s speed=0.0103x elapsed=0:01:43.41    \nframe=  131 fps=1.3 q=36.9 size=     256KiB time=00:00:01.07 bitrate=1951.2kbits/s speed=0.0103x elapsed=0:01:43.92    \nframe=  132 fps=1.3 q=41.2 size=     512KiB time=00:00:01.08 bitrate=3872.0kbits/s speed=0.0104x elapsed=0:01:44.43    \nframe=  132 fps=1.3 q=41.2 size=     512KiB time=00:00:01.08 bitrate=3872.0kbits/s speed=0.0103x elapsed=0:01:44.97    \nframe=  133 fps=1.3 q=42.8 size=     512KiB time=00:00:01.09 bitrate=3842.4kbits/s speed=0.0103x elapsed=0:01:45.50    \nframe=  134 fps=1.3 q=43.0 size=     512KiB time=00:00:01.10 bitrate=3813.3kbits/s speed=0.0104x elapsed=0:01:46.02    \nframe=  134 fps=1.3 q=43.0 size=     512KiB time=00:00:01.10 bitrate=3813.3kbits/s speed=0.0103x elapsed=0:01:46.55    \nframe=  136 fps=1.3 q=41.1 size=     512KiB time=00:00:01.11 bitrate=3756.4kbits/s speed=0.0104x elapsed=0:01:47.07    \nframe=  136 fps=1.3 q=41.1 size=     512KiB time=00:00:01.11 bitrate=3756.4kbits/s speed=0.0104x elapsed=0:01:47.59    \nframe=  136 fps=1.3 q=41.1 size=     512KiB time=00:00:01.11 bitrate=3756.4kbits/s speed=0.0103x elapsed=0:01:48.10    \nframe=  137 fps=1.3 q=43.1 size=     512KiB time=00:00:01.12 bitrate=3728.6kbits/s speed=0.0104x elapsed=0:01:48.62    \nframe=  137 fps=1.3 q=43.1 size=     512KiB time=00:00:01.12 bitrate=3728.6kbits/s speed=0.0103x elapsed=0:01:49.14    \nframe=  138 fps=1.3 q=42.9 size=     512KiB time=00:00:01.13 bitrate=3701.2kbits/s speed=0.0103x elapsed=0:01:49.67    \nframe=  139 fps=1.3 q=37.4 size=     512KiB time=00:00:01.14 bitrate=3674.2kbits/s speed=0.0104x elapsed=0:01:50.20    \nframe=  139 fps=1.3 q=37.4 size=     512KiB time=00:00:01.14 bitrate=3674.2kbits/s speed=0.0103x elapsed=0:01:50.72    \nframe=  140 fps=1.3 q=41.3 size=     512KiB time=00:00:01.15 bitrate=3647.5kbits/s speed=0.0103x elapsed=0:01:51.24    \nframe=  141 fps=1.3 q=42.9 size=     512KiB time=00:00:01.15 bitrate=3621.3kbits/s speed=0.0104x elapsed=0:01:51.77    \nframe=  141 fps=1.3 q=42.9 size=     512KiB time=00:00:01.15 bitrate=3621.3kbits/s speed=0.0103x elapsed=0:01:52.28    \nframe=  141 fps=1.3 q=42.9 size=     512KiB time=00:00:01.15 bitrate=3621.3kbits/s speed=0.0103x elapsed=0:01:52.79    \nframe=  142 fps=1.3 q=37.0 size=     512KiB time=00:00:01.16 bitrate=3595.4kbits/s speed=0.0103x elapsed=0:01:53.31    \nframe=  143 fps=1.3 q=41.2 size=     512KiB time=00:00:01.17 bitrate=3569.9kbits/s speed=0.0103x elapsed=0:01:53.84    \nframe=  143 fps=1.3 q=41.2 size=     512KiB time=00:00:01.17 bitrate=3569.9kbits/s speed=0.0103x elapsed=0:01:54.37    \nframe=  143 fps=1.2 q=41.2 size=     512KiB time=00:00:01.17 bitrate=3569.9kbits/s speed=0.0102x elapsed=0:01:54.89    \nframe=  144 fps=1.2 q=42.9 size=     512KiB time=00:00:01.18 bitrate=3544.8kbits/s speed=0.0103x elapsed=0:01:55.41    \nframe=  145 fps=1.3 q=37.5 size=     512KiB time=00:00:01.19 bitrate=3520.0kbits/s speed=0.0103x elapsed=0:01:55.93    \nframe=  146 fps=1.3 q=41.1 size=     512KiB time=00:00:01.20 bitrate=3495.5kbits/s speed=0.0103x elapsed=0:01:56.45    \nframe=  146 fps=1.2 q=41.1 size=     512KiB time=00:00:01.20 bitrate=3495.5kbits/s speed=0.0103x elapsed=0:01:56.97    \nframe=  147 fps=1.3 q=42.9 size=     512KiB time=00:00:01.20 bitrate=3471.4kbits/s speed=0.0103x elapsed=0:01:57.48    \nframe=  147 fps=1.2 q=42.9 size=     512KiB time=00:00:01.20 bitrate=3471.4kbits/s speed=0.0102x elapsed=0:01:58.00    \nframe=  149 fps=1.3 q=37.1 size=     512KiB time=00:00:01.22 bitrate=3424.2kbits/s speed=0.0103x elapsed=0:01:58.52    \nframe=  150 fps=1.3 q=41.1 size=     512KiB time=00:00:01.23 bitrate=3401.1kbits/s speed=0.0104x elapsed=0:01:59.02    \nframe=  151 fps=1.3 q=43.0 size=     512KiB time=00:00:01.24 bitrate=3378.2kbits/s speed=0.0104x elapsed=0:01:59.54    \nframe=  151 fps=1.3 q=43.0 size=     512KiB time=00:00:01.24 bitrate=3378.2kbits/s speed=0.0103x elapsed=0:02:00.06    \nframe=  151 fps=1.3 q=43.0 size=     512KiB time=00:00:01.24 bitrate=3378.2kbits/s speed=0.0103x elapsed=0:02:00.59    \nframe=  152 fps=1.3 q=43.5 size=     512KiB time=00:00:01.25 bitrate=3355.7kbits/s speed=0.0103x elapsed=0:02:01.10    \nframe=  153 fps=1.3 q=37.1 size=     512KiB time=00:00:01.25 bitrate=3333.5kbits/s speed=0.0103x elapsed=0:02:01.62    \nframe=  154 fps=1.3 q=41.1 size=     512KiB time=00:00:01.26 bitrate=3311.6kbits/s speed=0.0104x elapsed=0:02:02.13    \nframe=  155 fps=1.3 q=43.5 size=     512KiB time=00:00:01.27 bitrate=3289.9kbits/s speed=0.0104x elapsed=0:02:02.65    \nframe=  155 fps=1.3 q=43.5 size=     512KiB time=00:00:01.27 bitrate=3289.9kbits/s speed=0.0104x elapsed=0:02:03.17    \nframe=  156 fps=1.3 q=43.7 size=     512KiB time=00:00:01.28 bitrate=3268.6kbits/s speed=0.0104x elapsed=0:02:03.70    \nframe=  157 fps=1.3 q=37.3 size=     512KiB time=00:00:01.29 bitrate=3247.5kbits/s speed=0.0104x elapsed=0:02:04.21    \nframe=  158 fps=1.3 q=41.6 size=     512KiB time=00:00:01.30 bitrate=3226.7kbits/s speed=0.0104x elapsed=0:02:04.74    \nframe=  158 fps=1.3 q=41.6 size=     512KiB time=00:00:01.30 bitrate=3226.7kbits/s speed=0.0104x elapsed=0:02:05.25    \nframe=  159 fps=1.3 q=43.6 size=     512KiB time=00:00:01.30 bitrate=3206.1kbits/s speed=0.0104x elapsed=0:02:05.77    \nframe=  160 fps=1.3 q=43.4 size=     512KiB time=00:00:01.31 bitrate=3185.8kbits/s speed=0.0104x elapsed=0:02:06.30    \nframe=  160 fps=1.3 q=43.4 size=     512KiB time=00:00:01.31 bitrate=3185.8kbits/s speed=0.0104x elapsed=0:02:06.82    \nframe=  161 fps=1.3 q=37.9 size=     512KiB time=00:00:01.32 bitrate=3165.8kbits/s speed=0.0104x elapsed=0:02:07.34    \nframe=  162 fps=1.3 q=41.7 size=     512KiB time=00:00:01.33 bitrate=3146.0kbits/s speed=0.0104x elapsed=0:02:07.86    \nframe=  162 fps=1.3 q=41.7 size=     512KiB time=00:00:01.33 bitrate=3146.0kbits/s speed=0.0104x elapsed=0:02:08.39    \nframe=  162 fps=1.3 q=41.7 size=     512KiB time=00:00:01.33 bitrate=3146.0kbits/s speed=0.0103x elapsed=0:02:08.91    \nframe=  163 fps=1.3 q=43.7 size=     512KiB time=00:00:01.34 bitrate=3126.5kbits/s speed=0.0104x elapsed=0:02:09.44    \nframe=  164 fps=1.3 q=43.6 size=     512KiB time=00:00:01.35 bitrate=3107.2kbits/s speed=0.0104x elapsed=0:02:09.96    \nframe=  164 fps=1.3 q=43.6 size=     512KiB time=00:00:01.35 bitrate=3107.2kbits/s speed=0.0103x elapsed=0:02:10.48    \nframe=  165 fps=1.3 q=37.4 size=     512KiB time=00:00:01.35 bitrate=3088.1kbits/s speed=0.0104x elapsed=0:02:11.01    \nframe=  165 fps=1.3 q=37.4 size=     512KiB time=00:00:01.35 bitrate=3088.1kbits/s speed=0.0103x elapsed=0:02:11.53    \nframe=  166 fps=1.3 q=41.7 size=     512KiB time=00:00:01.36 bitrate=3069.3kbits/s speed=0.0103x elapsed=0:02:12.06    \nframe=  167 fps=1.3 q=43.6 size=     512KiB time=00:00:01.37 bitrate=3050.7kbits/s speed=0.0104x elapsed=0:02:12.57    \nframe=  168 fps=1.3 q=38.2 size=     512KiB time=00:00:01.38 bitrate=3032.3kbits/s speed=0.0104x elapsed=0:02:13.08    \nframe=  168 fps=1.3 q=38.2 size=     512KiB time=00:00:01.38 bitrate=3032.3kbits/s speed=0.0104x elapsed=0:02:13.60    \nframe=  169 fps=1.3 q=42.1 size=     512KiB time=00:00:01.39 bitrate=3014.1kbits/s speed=0.0104x elapsed=0:02:14.12    \nframe=  169 fps=1.3 q=42.1 size=     512KiB time=00:00:01.39 bitrate=3014.1kbits/s speed=0.0103x elapsed=0:02:14.63    \nframe=  171 fps=1.3 q=38.0 size=     512KiB time=00:00:01.40 bitrate=2978.5kbits/s speed=0.0104x elapsed=0:02:15.15    \nframe=  172 fps=1.3 q=41.9 size=     512KiB time=00:00:01.41 bitrate=2960.9kbits/s speed=0.0104x elapsed=0:02:15.67    \nframe=  173 fps=1.3 q=43.5 size=     512KiB time=00:00:01.42 bitrate=2943.6kbits/s speed=0.0105x elapsed=0:02:16.19    \nframe=  174 fps=1.3 q=43.5 size=     512KiB time=00:00:01.43 bitrate=2926.5kbits/s speed=0.0105x elapsed=0:02:16.69    \nframe=  174 fps=1.3 q=43.5 size=     512KiB time=00:00:01.43 bitrate=2926.5kbits/s speed=0.0104x elapsed=0:02:17.21    \nframe=  176 fps=1.3 q=41.7 size=     512KiB time=00:00:01.45 bitrate=2892.9kbits/s speed=0.0105x elapsed=0:02:17.74    \nframe=  176 fps=1.3 q=41.7 size=     512KiB time=00:00:01.45 bitrate=2892.9kbits/s speed=0.0105x elapsed=0:02:18.26    \nframe=  177 fps=1.3 q=43.7 size=     512KiB time=00:00:01.45 bitrate=2876.3kbits/s speed=0.0105x elapsed=0:02:18.77    \nframe=  177 fps=1.3 q=43.7 size=     512KiB time=00:00:01.45 bitrate=2876.3kbits/s speed=0.0105x elapsed=0:02:19.30    \nframe=  177 fps=1.3 q=43.7 size=     512KiB time=00:00:01.45 bitrate=2876.3kbits/s speed=0.0104x elapsed=0:02:19.82    \nframe=  178 fps=1.3 q=43.6 size=     512KiB time=00:00:01.46 bitrate=2860.0kbits/s speed=0.0105x elapsed=0:02:20.33    \nframe=  180 fps=1.3 q=41.8 size=     512KiB time=00:00:01.48 bitrate=2827.9kbits/s speed=0.0105x elapsed=0:02:20.85    \nframe=  180 fps=1.3 q=41.8 size=     512KiB time=00:00:01.48 bitrate=2827.9kbits/s speed=0.0105x elapsed=0:02:21.37    \nframe=  182 fps=1.3 q=43.6 size=     512KiB time=00:00:01.50 bitrate=2796.4kbits/s speed=0.0106x elapsed=0:02:21.88    \nframe=  184 fps=1.3 q=41.7 size=     512KiB time=00:00:01.51 bitrate=2765.7kbits/s speed=0.0107x elapsed=0:02:22.40    \nframe=  184 fps=1.3 q=41.7 size=     512KiB time=00:00:01.51 bitrate=2765.7kbits/s speed=0.0106x elapsed=0:02:22.92    \nframe=  185 fps=1.3 q=43.6 size=     512KiB time=00:00:01.52 bitrate=2750.6kbits/s speed=0.0106x elapsed=0:02:23.44    \nframe=  187 fps=1.3 q=38.1 size=     512KiB time=00:00:01.54 bitrate=2720.9kbits/s speed=0.0107x elapsed=0:02:23.95    \nframe=  188 fps=1.3 q=41.8 size=     768KiB time=00:00:01.55 bitrate=4059.2kbits/s speed=0.0107x elapsed=0:02:24.46    \nframe=  189 fps=1.3 q=43.6 size=     768KiB time=00:00:01.55 bitrate=4037.5kbits/s speed=0.0107x elapsed=0:02:24.98    \nframe=  190 fps=1.3 q=43.6 size=     768KiB time=00:00:01.56 bitrate=4016.0kbits/s speed=0.0108x elapsed=0:02:25.49    \nframe=  192 fps=1.3 q=41.7 size=     768KiB time=00:00:01.58 bitrate=3973.8kbits/s speed=0.0108x elapsed=0:02:26.02    \nframe=  193 fps=1.3 q=43.7 size=     768KiB time=00:00:01.59 bitrate=3953.0kbits/s speed=0.0109x elapsed=0:02:26.52    \nframe=  193 fps=1.3 q=43.7 size=     768KiB time=00:00:01.59 bitrate=3953.0kbits/s speed=0.0108x elapsed=0:02:27.04    \nframe=  195 fps=1.3 q=38.3 size=     768KiB time=00:00:01.60 bitrate=3912.0kbits/s speed=0.0109x elapsed=0:02:27.55    \nframe=  196 fps=1.3 q=41.9 size=     768KiB time=00:00:01.61 bitrate=3891.8kbits/s speed=0.0109x elapsed=0:02:28.07    \nframe=  197 fps=1.3 q=43.7 size=     768KiB time=00:00:01.62 bitrate=3871.9kbits/s speed=0.0109x elapsed=0:02:28.59    \nframe=  198 fps=1.3 q=43.8 size=     768KiB time=00:00:01.63 bitrate=3852.1kbits/s speed=0.011x elapsed=0:02:29.11    \nframe=  200 fps=1.3 q=42.0 size=     768KiB time=00:00:01.65 bitrate=3813.2kbits/s speed=0.011x elapsed=0:02:29.62    \nframe=  200 fps=1.3 q=42.0 size=     768KiB time=00:00:01.65 bitrate=3813.2kbits/s speed=0.011x elapsed=0:02:30.13    \nframe=  202 fps=1.3 q=43.9 size=     768KiB time=00:00:01.66 bitrate=3775.1kbits/s speed=0.0111x elapsed=0:02:30.66    \nframe=  203 fps=1.3 q=39.1 size=     768KiB time=00:00:01.67 bitrate=3756.3kbits/s speed=0.0111x elapsed=0:02:31.17    \nframe=  204 fps=1.3 q=41.8 size=     768KiB time=00:00:01.68 bitrate=3737.7kbits/s speed=0.0111x elapsed=0:02:31.68    \nframe=  204 fps=1.3 q=41.8 size=     768KiB time=00:00:01.68 bitrate=3737.7kbits/s speed=0.0111x elapsed=0:02:32.20    \nframe=  206 fps=1.3 q=38.3 size=     768KiB time=00:00:01.70 bitrate=3701.1kbits/s speed=0.0111x elapsed=0:02:32.72    \nframe=  207 fps=1.4 q=41.8 size=     768KiB time=00:00:01.70 bitrate=3683.0kbits/s speed=0.0111x elapsed=0:02:33.22    \nframe=  209 fps=1.4 q=44.5 size=     768KiB time=00:00:01.72 bitrate=3647.4kbits/s speed=0.0112x elapsed=0:02:33.74    \nframe=  209 fps=1.4 q=44.5 size=     768KiB time=00:00:01.72 bitrate=3647.4kbits/s speed=0.0112x elapsed=0:02:34.25    \nframe=  211 fps=1.4 q=42.0 size=     768KiB time=00:00:01.74 bitrate=3612.5kbits/s speed=0.0113x elapsed=0:02:34.78    \nframe=  212 fps=1.4 q=44.5 size=     768KiB time=00:00:01.75 bitrate=3595.3kbits/s speed=0.0113x elapsed=0:02:35.29    \nframe=  213 fps=1.4 q=38.9 size=     768KiB time=00:00:01.75 bitrate=3578.3kbits/s speed=0.0113x elapsed=0:02:35.81    \nframe=  214 fps=1.4 q=42.1 size=     768KiB time=00:00:01.76 bitrate=3561.4kbits/s speed=0.0113x elapsed=0:02:36.32    \nframe=  215 fps=1.4 q=44.6 size=     768KiB time=00:00:01.77 bitrate=3544.7kbits/s speed=0.0113x elapsed=0:02:36.84    \nframe=  216 fps=1.4 q=44.6 size=     768KiB time=00:00:01.78 bitrate=3528.1kbits/s speed=0.0113x elapsed=0:02:37.35    \nframe=  218 fps=1.4 q=42.5 size=     768KiB time=00:00:01.80 bitrate=3495.4kbits/s speed=0.0114x elapsed=0:02:37.87    \nframe=  219 fps=1.4 q=44.6 size=     768KiB time=00:00:01.80 bitrate=3479.3kbits/s speed=0.0114x elapsed=0:02:38.38    \nframe=  220 fps=1.4 q=44.6 size=     768KiB time=00:00:01.81 bitrate=3463.4kbits/s speed=0.0114x elapsed=0:02:38.90    \nframe=  222 fps=1.4 q=42.7 size=     768KiB time=00:00:01.83 bitrate=3431.9kbits/s speed=0.0115x elapsed=0:02:39.41    \nframe=  223 fps=1.4 q=44.7 size=     768KiB time=00:00:01.84 bitrate=3416.4kbits/s speed=0.0115x elapsed=0:02:39.93    \nframe=  224 fps=1.4 q=44.5 size=     768KiB time=00:00:01.85 bitrate=3401.0kbits/s speed=0.0115x elapsed=0:02:40.45    \nframe=  225 fps=1.4 q=39.2 size=     768KiB time=00:00:01.85 bitrate=3385.7kbits/s speed=0.0115x elapsed=0:02:40.96    \nframe=  226 fps=1.4 q=42.7 size=     768KiB time=00:00:01.86 bitrate=3370.6kbits/s speed=0.0116x elapsed=0:02:41.48    \nframe=  227 fps=1.4 q=44.7 size=     768KiB time=00:00:01.87 bitrate=3355.6kbits/s speed=0.0116x elapsed=0:02:42.00    \nframe=  228 fps=1.4 q=44.6 size=     768KiB time=00:00:01.88 bitrate=3340.8kbits/s speed=0.0116x elapsed=0:02:42.53    \nframe=  228 fps=1.4 q=44.6 size=     768KiB time=00:00:01.88 bitrate=3340.8kbits/s speed=0.0116x elapsed=0:02:43.05    \nframe=  229 fps=1.4 q=38.3 size=     768KiB time=00:00:01.89 bitrate=3326.1kbits/s speed=0.0116x elapsed=0:02:43.57    \nframe=  230 fps=1.4 q=42.8 size=     768KiB time=00:00:01.90 bitrate=3311.5kbits/s speed=0.0116x elapsed=0:02:44.10    \nframe=  230 fps=1.4 q=42.8 size=     768KiB time=00:00:01.90 bitrate=3311.5kbits/s speed=0.0115x elapsed=0:02:44.61    \nframe=  230 fps=1.4 q=42.8 size=     768KiB time=00:00:01.90 bitrate=3311.5kbits/s speed=0.0115x elapsed=0:02:45.14    \nframe=  231 fps=1.4 q=44.7 size=     768KiB time=00:00:01.90 bitrate=3297.0kbits/s speed=0.0115x elapsed=0:02:45.64    \nframe=  231 fps=1.4 q=44.7 size=     768KiB time=00:00:01.90 bitrate=3297.0kbits/s speed=0.0115x elapsed=0:02:46.16    \nframe=  232 fps=1.4 q=44.7 size=     768KiB time=00:00:01.91 bitrate=3282.7kbits/s speed=0.0115x elapsed=0:02:46.68    \nframe=  232 fps=1.4 q=44.7 size=     768KiB time=00:00:01.91 bitrate=3282.7kbits/s speed=0.0115x elapsed=0:02:47.20    \nframe=  232 fps=1.4 q=44.7 size=     768KiB time=00:00:01.91 bitrate=3282.7kbits/s speed=0.0114x elapsed=0:02:47.73    \nframe=  233 fps=1.4 q=38.4 size=     768KiB time=00:00:01.92 bitrate=3268.5kbits/s speed=0.0114x elapsed=0:02:48.24    \nframe=  234 fps=1.4 q=42.7 size=     768KiB time=00:00:01.93 bitrate=3254.4kbits/s speed=0.0115x elapsed=0:02:48.75    \nframe=  235 fps=1.4 q=44.6 size=     768KiB time=00:00:01.94 bitrate=3240.4kbits/s speed=0.0115x elapsed=0:02:49.28    \nframe=  235 fps=1.4 q=44.6 size=     768KiB time=00:00:01.94 bitrate=3240.4kbits/s speed=0.0114x elapsed=0:02:49.79    \nframe=  235 fps=1.4 q=44.6 size=     768KiB time=00:00:01.94 bitrate=3240.4kbits/s speed=0.0114x elapsed=0:02:50.31    \nframe=  236 fps=1.4 q=44.6 size=     768KiB time=00:00:01.95 bitrate=3226.6kbits/s speed=0.0114x elapsed=0:02:50.83    \nframe=  236 fps=1.4 q=44.6 size=     768KiB time=00:00:01.95 bitrate=3226.6kbits/s speed=0.0114x elapsed=0:02:51.33    \nframe=  237 fps=1.4 q=39.7 size=     768KiB time=00:00:01.95 bitrate=3212.8kbits/s speed=0.0114x elapsed=0:02:51.86    \nframe=  238 fps=1.4 q=42.8 size=     768KiB time=00:00:01.96 bitrate=3199.2kbits/s speed=0.0114x elapsed=0:02:52.38    \nframe=  240 fps=1.4 q=44.6 size=     768KiB time=00:00:01.98 bitrate=3172.3kbits/s speed=0.0115x elapsed=0:02:52.89    \nframe=  240 fps=1.4 q=44.6 size=     768KiB time=00:00:01.98 bitrate=3172.3kbits/s speed=0.0114x elapsed=0:02:53.42    \nframe=  240 fps=1.4 q=44.6 size=     768KiB time=00:00:01.98 bitrate=3172.3kbits/s speed=0.0114x elapsed=0:02:53.94    \nframe=  241 fps=1.4 q=39.8 size=    1024KiB time=00:00:01.99 bitrate=4212.0kbits/s speed=0.0114x elapsed=0:02:54.46    \nframe=  242 fps=1.4 q=42.8 size=    1024KiB time=00:00:02.00 bitrate=4194.5kbits/s speed=0.0114x elapsed=0:02:54.98    \nframe=  242 fps=1.4 q=42.8 size=    1024KiB time=00:00:02.00 bitrate=4194.5kbits/s speed=0.0114x elapsed=0:02:55.50    \nframe=  243 fps=1.4 q=44.7 size=    1024KiB time=00:00:02.00 bitrate=4177.1kbits/s speed=0.0114x elapsed=0:02:56.03    \nframe=  244 fps=1.4 q=44.7 size=    1024KiB time=00:00:02.01 bitrate=4159.8kbits/s speed=0.0114x elapsed=0:02:56.54    \nframe=  244 fps=1.4 q=44.7 size=    1024KiB time=00:00:02.01 bitrate=4159.8kbits/s speed=0.0114x elapsed=0:02:57.06    \nframe=  245 fps=1.4 q=38.1 size=    1024KiB time=00:00:02.02 bitrate=4142.7kbits/s speed=0.0114x elapsed=0:02:57.57    \nframe=  245 fps=1.4 q=38.1 size=    1024KiB time=00:00:02.02 bitrate=4142.7kbits/s speed=0.0114x elapsed=0:02:58.09    \nframe=  246 fps=1.4 q=42.8 size=    1024KiB time=00:00:02.03 bitrate=4125.7kbits/s speed=0.0114x elapsed=0:02:58.61    \nframe=  246 fps=1.4 q=42.8 size=    1024KiB time=00:00:02.03 bitrate=4125.7kbits/s speed=0.0114x elapsed=0:02:59.11    \nframe=  247 fps=1.4 q=44.8 size=    1024KiB time=00:00:02.04 bitrate=4108.9kbits/s speed=0.0114x elapsed=0:02:59.63    \nframe=  248 fps=1.4 q=44.7 size=    1024KiB time=00:00:02.05 bitrate=4092.2kbits/s speed=0.0114x elapsed=0:03:00.15    \nframe=  248 fps=1.4 q=44.7 size=    1024KiB time=00:00:02.05 bitrate=4092.2kbits/s speed=0.0113x elapsed=0:03:00.67    \nframe=  249 fps=1.4 q=36.9 size=    1024KiB time=00:00:02.05 bitrate=4075.6kbits/s speed=0.0114x elapsed=0:03:01.20    \nframe=  249 fps=1.4 q=36.9 size=    1024KiB time=00:00:02.05 bitrate=4075.6kbits/s speed=0.0113x elapsed=0:03:01.75    \nframe=  249 fps=1.4 q=36.9 size=    1024KiB time=00:00:02.05 bitrate=4075.6kbits/s speed=0.0113x elapsed=0:03:02.27    \nframe=  249 fps=1.4 q=36.9 size=    1024KiB time=00:00:02.05 bitrate=4075.6kbits/s speed=0.0113x elapsed=0:03:02.80    \nframe=  249 fps=1.4 q=36.9 size=    1024KiB time=00:00:02.05 bitrate=4075.6kbits/s speed=0.0112x elapsed=0:03:03.32    \nframe=  249 fps=1.4 q=36.9 size=    1024KiB time=00:00:02.05 bitrate=4075.6kbits/s speed=0.0112x elapsed=0:03:03.84    \nframe=  250 fps=1.4 q=42.6 size=    1024KiB time=00:00:02.06 bitrate=4059.2kbits/s speed=0.0112x elapsed=0:03:04.37    \nframe=  252 fps=1.4 q=39.5 size=    1024KiB time=00:00:02.08 bitrate=4026.7kbits/s speed=0.0113x elapsed=0:03:04.88    \nframe=  253 fps=1.4 q=42.4 size=    1024KiB time=00:00:02.09 bitrate=4010.7kbits/s speed=0.0113x elapsed=0:03:05.40    \nframe=  254 fps=1.4 q=43.8 size=    1024KiB time=00:00:02.10 bitrate=3994.7kbits/s speed=0.0113x elapsed=0:03:05.93    \nframe=  254 fps=1.4 q=43.8 size=    1024KiB time=00:00:02.10 bitrate=3994.7kbits/s speed=0.0113x elapsed=0:03:06.45    \nframe=  254 fps=1.4 q=43.8 size=    1024KiB time=00:00:02.10 bitrate=3994.7kbits/s speed=0.0112x elapsed=0:03:06.96    \nframe=  255 fps=1.4 q=39.7 size=    1024KiB time=00:00:02.10 bitrate=3979.0kbits/s speed=0.0112x elapsed=0:03:07.48    \nframe=  255 fps=1.4 q=39.7 size=    1024KiB time=00:00:02.10 bitrate=3979.0kbits/s speed=0.0112x elapsed=0:03:08.00    \nframe=  255 fps=1.4 q=39.7 size=    1024KiB time=00:00:02.10 bitrate=3979.0kbits/s speed=0.0112x elapsed=0:03:08.52    \nframe=  256 fps=1.4 q=42.0 size=    1024KiB time=00:00:02.11 bitrate=3963.3kbits/s speed=0.0112x elapsed=0:03:09.03    \nframe=  257 fps=1.4 q=43.8 size=    1024KiB time=00:00:02.12 bitrate=3947.7kbits/s speed=0.0112x elapsed=0:03:09.54    \nframe=  258 fps=1.4 q=43.8 size=    1024KiB time=00:00:02.13 bitrate=3932.3kbits/s speed=0.0112x elapsed=0:03:10.06    \nframe=  258 fps=1.4 q=43.8 size=    1024KiB time=00:00:02.13 bitrate=3932.3kbits/s speed=0.0112x elapsed=0:03:10.57    \nframe=  259 fps=1.4 q=37.5 size=    1024KiB time=00:00:02.14 bitrate=3917.0kbits/s speed=0.0112x elapsed=0:03:11.09    \nframe=  259 fps=1.4 q=37.5 size=    1024KiB time=00:00:02.14 bitrate=3917.0kbits/s speed=0.0112x elapsed=0:03:11.60    \nframe=  259 fps=1.3 q=37.5 size=    1024KiB time=00:00:02.14 bitrate=3917.0kbits/s speed=0.0111x elapsed=0:03:12.11    \nframe=  259 fps=1.3 q=37.5 size=    1024KiB time=00:00:02.14 bitrate=3917.0kbits/s speed=0.0111x elapsed=0:03:12.65    \nframe=  260 fps=1.3 q=41.9 size=    1024KiB time=00:00:02.15 bitrate=3901.8kbits/s speed=0.0111x elapsed=0:03:13.16    \nframe=  260 fps=1.3 q=41.9 size=    1024KiB time=00:00:02.15 bitrate=3901.8kbits/s speed=0.0111x elapsed=0:03:13.68    \nframe=  262 fps=1.3 q=44.3 size=    1024KiB time=00:00:02.16 bitrate=3871.8kbits/s speed=0.0112x elapsed=0:03:14.20    \nframe=  263 fps=1.4 q=44.4 size=    1024KiB time=00:00:02.17 bitrate=3857.0kbits/s speed=0.0112x elapsed=0:03:14.72    \nframe=  263 fps=1.3 q=44.4 size=    1024KiB time=00:00:02.17 bitrate=3857.0kbits/s speed=0.0111x elapsed=0:03:15.25    \nframe=  264 fps=1.3 q=38.4 size=    1024KiB time=00:00:02.18 bitrate=3842.3kbits/s speed=0.0112x elapsed=0:03:15.77    \nframe=  264 fps=1.3 q=38.4 size=    1024KiB time=00:00:02.18 bitrate=3842.3kbits/s speed=0.0111x elapsed=0:03:16.29    \nframe=  264 fps=1.3 q=38.4 size=    1024KiB time=00:00:02.18 bitrate=3842.3kbits/s speed=0.0111x elapsed=0:03:16.81    \nframe=  265 fps=1.3 q=43.1 size=    1024KiB time=00:00:02.19 bitrate=3827.7kbits/s speed=0.0111x elapsed=0:03:17.32    \nframe=  267 fps=1.3 q=44.7 size=    1024KiB time=00:00:02.20 bitrate=3798.8kbits/s speed=0.0112x elapsed=0:03:17.84    \nframe=  267 fps=1.3 q=44.7 size=    1024KiB time=00:00:02.20 bitrate=3798.8kbits/s speed=0.0111x elapsed=0:03:18.35    \nframe=  268 fps=1.3 q=39.4 size=    1024KiB time=00:00:02.21 bitrate=3784.5kbits/s speed=0.0111x elapsed=0:03:18.88    \nframe=  268 fps=1.3 q=39.4 size=    1024KiB time=00:00:02.21 bitrate=3784.5kbits/s speed=0.0111x elapsed=0:03:19.40    \nframe=  269 fps=1.3 q=43.2 size=    1024KiB time=00:00:02.22 bitrate=3770.3kbits/s speed=0.0111x elapsed=0:03:19.93    \nframe=  270 fps=1.3 q=44.6 size=    1024KiB time=00:00:02.23 bitrate=3756.3kbits/s speed=0.0111x elapsed=0:03:20.45    \nframe=  271 fps=1.3 q=37.8 size=    1024KiB time=00:00:02.24 bitrate=3742.3kbits/s speed=0.0112x elapsed=0:03:20.97    \nframe=  272 fps=1.3 q=43.5 size=    1024KiB time=00:00:02.25 bitrate=3728.4kbits/s speed=0.0112x elapsed=0:03:21.48    \nframe=  273 fps=1.4 q=44.8 size=    1024KiB time=00:00:02.25 bitrate=3714.7kbits/s speed=0.0112x elapsed=0:03:22.01    \nframe=  274 fps=1.4 q=37.4 size=    1024KiB time=00:00:02.26 bitrate=3701.0kbits/s speed=0.0112x elapsed=0:03:22.53    \nframe=  275 fps=1.4 q=43.8 size=    1024KiB time=00:00:02.27 bitrate=3687.5kbits/s speed=0.0112x elapsed=0:03:23.05    \nframe=  275 fps=1.4 q=43.8 size=    1024KiB time=00:00:02.27 bitrate=3687.5kbits/s speed=0.0112x elapsed=0:03:23.57    \nframe=  277 fps=1.4 q=44.8 size=    1024KiB time=00:00:02.29 bitrate=3660.6kbits/s speed=0.0112x elapsed=0:03:24.09    \nframe=  278 fps=1.4 q=37.8 size=    1024KiB time=00:00:02.30 bitrate=3647.4kbits/s speed=0.0112x elapsed=0:03:24.61    \nframe=  279 fps=1.4 q=44.0 size=    1024KiB time=00:00:02.30 bitrate=3634.2kbits/s speed=0.0113x elapsed=0:03:25.12    \nframe=  279 fps=1.4 q=44.0 size=    1024KiB time=00:00:02.30 bitrate=3634.2kbits/s speed=0.0112x elapsed=0:03:25.64    \nframe=  280 fps=1.4 q=44.9 size=    1024KiB time=00:00:02.31 bitrate=3621.1kbits/s speed=0.0112x elapsed=0:03:26.16    \nframe=  281 fps=1.4 q=38.1 size=    1024KiB time=00:00:02.32 bitrate=3608.2kbits/s speed=0.0112x elapsed=0:03:26.68    \nframe=  281 fps=1.4 q=38.1 size=    1024KiB time=00:00:02.32 bitrate=3608.2kbits/s speed=0.0112x elapsed=0:03:27.20    \nframe=  282 fps=1.4 q=44.8 size=    1024KiB time=00:00:02.33 bitrate=3595.3kbits/s speed=0.0112x elapsed=0:03:27.71    \nframe=  282 fps=1.4 q=44.8 size=    1024KiB time=00:00:02.33 bitrate=3595.3kbits/s speed=0.0112x elapsed=0:03:28.24    \nframe=  283 fps=1.4 q=38.7 size=    1024KiB time=00:00:02.34 bitrate=3582.5kbits/s speed=0.0112x elapsed=0:03:28.76    \nframe=  283 fps=1.4 q=38.7 size=    1024KiB time=00:00:02.34 bitrate=3582.5kbits/s speed=0.0112x elapsed=0:03:29.29    \nframe=  284 fps=1.4 q=44.8 size=    1024KiB time=00:00:02.35 bitrate=3569.8kbits/s speed=0.0112x elapsed=0:03:29.80    \nframe=  284 fps=1.4 q=44.8 size=    1024KiB time=00:00:02.35 bitrate=3569.8kbits/s speed=0.0112x elapsed=0:03:30.32    \nframe=  284 fps=1.3 q=44.8 size=    1024KiB time=00:00:02.35 bitrate=3569.8kbits/s speed=0.0111x elapsed=0:03:30.86    \nframe=  285 fps=1.3 q=45.6 size=    1024KiB time=00:00:02.35 bitrate=3557.2kbits/s speed=0.0112x elapsed=0:03:31.38    \nframe=  285 fps=1.3 q=45.6 size=    1024KiB time=00:00:02.35 bitrate=3557.2kbits/s speed=0.0111x elapsed=0:03:31.91    \nframe=  286 fps=1.3 q=38.5 size=    1024KiB time=00:00:02.36 bitrate=3544.6kbits/s speed=0.0111x elapsed=0:03:32.42    \nframe=  287 fps=1.3 q=44.9 size=    1024KiB time=00:00:02.37 bitrate=3532.2kbits/s speed=0.0112x elapsed=0:03:32.94    \nframe=  289 fps=1.4 q=46.3 size=    1024KiB time=00:00:02.39 bitrate=3507.6kbits/s speed=0.0112x elapsed=0:03:33.46    \nframe=  290 fps=1.4 q=45.7 size=    1024KiB time=00:00:02.40 bitrate=3495.4kbits/s speed=0.0112x elapsed=0:03:33.98    \nframe=  291 fps=1.4 q=38.0 size=    1280KiB time=00:00:02.40 bitrate=4354.1kbits/s speed=0.0112x elapsed=0:03:34.50    \nframe=  292 fps=1.4 q=45.2 size=    1280KiB time=00:00:02.41 bitrate=4339.1kbits/s speed=0.0112x elapsed=0:03:35.01    \nframe=  293 fps=1.4 q=45.6 size=    1280KiB time=00:00:02.42 bitrate=4324.2kbits/s speed=0.0113x elapsed=0:03:35.52    \nframe=  294 fps=1.4 q=38.7 size=    1280KiB time=00:00:02.43 bitrate=4309.4kbits/s speed=0.0113x elapsed=0:03:36.03    \nframe=  296 fps=1.4 q=45.9 size=    1280KiB time=00:00:02.45 bitrate=4280.0kbits/s speed=0.0113x elapsed=0:03:36.57    \nframe=  297 fps=1.4 q=45.9 size=    1280KiB time=00:00:02.45 bitrate=4265.5kbits/s speed=0.0113x elapsed=0:03:37.08    \nframe=  298 fps=1.4 q=39.3 size=    1280KiB time=00:00:02.46 bitrate=4251.1kbits/s speed=0.0113x elapsed=0:03:37.61    \nframe=  300 fps=1.4 q=45.8 size=    1280KiB time=00:00:02.48 bitrate=4222.6kbits/s speed=0.0114x elapsed=0:03:38.12    \nframe=  301 fps=1.4 q=39.0 size=    1280KiB time=00:00:02.49 bitrate=4208.5kbits/s speed=0.0114x elapsed=0:03:38.63    \nframe=  303 fps=1.4 q=39.2 size=    1280KiB time=00:00:02.50 bitrate=4180.5kbits/s speed=0.0114x elapsed=0:03:39.15    \nframe=  304 fps=1.4 q=44.4 size=    1280KiB time=00:00:02.51 bitrate=4166.7kbits/s speed=0.0115x elapsed=0:03:39.66    \nframe=  305 fps=1.4 q=45.8 size=    1280KiB time=00:00:02.52 bitrate=4152.9kbits/s speed=0.0115x elapsed=0:03:40.18    \nframe=  306 fps=1.4 q=37.7 size=    1280KiB time=00:00:02.53 bitrate=4139.3kbits/s speed=0.0115x elapsed=0:03:40.70    \nframe=  307 fps=1.4 q=44.1 size=    1280KiB time=00:00:02.54 bitrate=4125.7kbits/s speed=0.0115x elapsed=0:03:41.21    \nframe=  309 fps=1.4 q=45.8 size=    1280KiB time=00:00:02.55 bitrate=4098.8kbits/s speed=0.0115x elapsed=0:03:41.72    \nframe=  310 fps=1.4 q=38.5 size=    1280KiB time=00:00:02.56 bitrate=4085.5kbits/s speed=0.0115x elapsed=0:03:42.25    \nframe=  311 fps=1.4 q=44.9 size=    1280KiB time=00:00:02.57 bitrate=4072.3kbits/s speed=0.0116x elapsed=0:03:42.75    \nframe=  313 fps=1.4 q=46.8 size=    1280KiB time=00:00:02.59 bitrate=4046.1kbits/s speed=0.0116x elapsed=0:03:43.27    \nframe=  314 fps=1.4 q=38.3 size=    1280KiB time=00:00:02.60 bitrate=4033.1kbits/s speed=0.0116x elapsed=0:03:43.80    \nframe=  315 fps=1.4 q=44.9 size=    1280KiB time=00:00:02.60 bitrate=4020.2kbits/s speed=0.0116x elapsed=0:03:44.30    \nframe=  317 fps=1.4 q=46.7 size=    1280KiB time=00:00:02.62 bitrate=3994.7kbits/s speed=0.0117x elapsed=0:03:44.82    \nframe=  317 fps=1.4 q=46.7 size=    1280KiB time=00:00:02.62 bitrate=3994.7kbits/s speed=0.0116x elapsed=0:03:45.34    \nframe=  318 fps=1.4 q=38.7 size=    1280KiB time=00:00:02.63 bitrate=3982.1kbits/s speed=0.0117x elapsed=0:03:45.86    \nframe=  319 fps=1.4 q=45.1 size=    1280KiB time=00:00:02.64 bitrate=3969.5kbits/s speed=0.0117x elapsed=0:03:46.38    \nframe=  321 fps=1.4 q=46.9 size=    1280KiB time=00:00:02.65 bitrate=3944.6kbits/s speed=0.0117x elapsed=0:03:46.90    \nframe=  322 fps=1.4 q=39.1 size=    1280KiB time=00:00:02.66 bitrate=3932.3kbits/s speed=0.0117x elapsed=0:03:47.42    \nframe=  323 fps=1.4 q=44.6 size=    1280KiB time=00:00:02.67 bitrate=3920.0kbits/s speed=0.0117x elapsed=0:03:47.92    \nframe=  325 fps=1.4 q=38.4 size=    1280KiB time=00:00:02.69 bitrate=3895.8kbits/s speed=0.0118x elapsed=0:03:48.45    \nframe=  326 fps=1.4 q=45.2 size=    1280KiB time=00:00:02.70 bitrate=3883.7kbits/s speed=0.0118x elapsed=0:03:48.97    \nframe=  328 fps=1.4 q=47.1 size=    1280KiB time=00:00:02.71 bitrate=3859.9kbits/s speed=0.0118x elapsed=0:03:49.48    \nframe=  328 fps=1.4 q=47.1 size=    1280KiB time=00:00:02.71 bitrate=3859.9kbits/s speed=0.0118x elapsed=0:03:49.99    \nframe=  329 fps=1.4 q=38.1 size=    1280KiB time=00:00:02.72 bitrate=3848.1kbits/s speed=0.0118x elapsed=0:03:50.50    \nframe=  332 fps=1.4 q=46.8 size=    1280KiB time=00:00:02.75 bitrate=3813.1kbits/s speed=0.0119x elapsed=0:03:51.03    \nframe=  332 fps=1.4 q=46.8 size=    1280KiB time=00:00:02.75 bitrate=3813.1kbits/s speed=0.0119x elapsed=0:03:51.54    \nframe=  334 fps=1.4 q=45.6 size=    1280KiB time=00:00:02.76 bitrate=3790.2kbits/s speed=0.0119x elapsed=0:03:52.06    \nframe=  335 fps=1.4 q=46.8 size=    1280KiB time=00:00:02.77 bitrate=3778.8kbits/s speed=0.0119x elapsed=0:03:52.58    \nframe=  336 fps=1.4 q=38.2 size=    1280KiB time=00:00:02.78 bitrate=3767.5kbits/s speed=0.0119x elapsed=0:03:53.09    \nframe=  338 fps=1.4 q=46.9 size=    1280KiB time=00:00:02.80 bitrate=3745.0kbits/s speed=0.012x elapsed=0:03:53.61    \nframe=  339 fps=1.4 q=47.0 size=    1280KiB time=00:00:02.80 bitrate=3733.9kbits/s speed=0.012x elapsed=0:03:54.12    \nframe=  340 fps=1.4 q=38.3 size=    1280KiB time=00:00:02.81 bitrate=3722.9kbits/s speed=0.012x elapsed=0:03:54.64    \nframe=  341 fps=1.5 q=44.9 size=    1280KiB time=00:00:02.82 bitrate=3711.9kbits/s speed=0.012x elapsed=0:03:55.16    \nframe=  343 fps=1.5 q=46.9 size=    1280KiB time=00:00:02.84 bitrate=3690.1kbits/s speed=0.0121x elapsed=0:03:55.68    \nframe=  343 fps=1.5 q=46.9 size=    1280KiB time=00:00:02.84 bitrate=3690.1kbits/s speed=0.012x elapsed=0:03:56.20    \nframe=  344 fps=1.5 q=38.0 size=    1280KiB time=00:00:02.85 bitrate=3679.3kbits/s speed=0.012x elapsed=0:03:56.71    \nframe=  345 fps=1.5 q=45.5 size=    1280KiB time=00:00:02.85 bitrate=3668.6kbits/s speed=0.012x elapsed=0:03:57.23    \nframe=  347 fps=1.5 q=46.8 size=    1280KiB time=00:00:02.87 bitrate=3647.3kbits/s speed=0.0121x elapsed=0:03:57.74    \nframe=  348 fps=1.5 q=46.8 size=    1280KiB time=00:00:02.88 bitrate=3636.8kbits/s speed=0.0121x elapsed=0:03:58.26    \nframe=  348 fps=1.5 q=46.8 size=    1280KiB time=00:00:02.88 bitrate=3636.8kbits/s speed=0.0121x elapsed=0:03:58.78    \nframe=  350 fps=1.5 q=45.0 size=    1536KiB time=00:00:02.90 bitrate=4339.1kbits/s speed=0.0121x elapsed=0:03:59.30    \nframe=  351 fps=1.5 q=46.8 size=    1536KiB time=00:00:02.90 bitrate=4326.6kbits/s speed=0.0121x elapsed=0:03:59.82    \nframe=  352 fps=1.5 q=47.0 size=    1536KiB time=00:00:02.91 bitrate=4314.3kbits/s speed=0.0121x elapsed=0:04:00.33    \nframe=  353 fps=1.5 q=39.0 size=    1536KiB time=00:00:02.92 bitrate=4302.0kbits/s speed=0.0121x elapsed=0:04:00.85    \nframe=  354 fps=1.5 q=45.0 size=    1536KiB time=00:00:02.93 bitrate=4289.7kbits/s speed=0.0122x elapsed=0:04:01.36    \nframe=  356 fps=1.5 q=46.9 size=    1536KiB time=00:00:02.95 bitrate=4265.5kbits/s speed=0.0122x elapsed=0:04:01.88    \nframe=  356 fps=1.5 q=46.9 size=    1536KiB time=00:00:02.95 bitrate=4265.5kbits/s speed=0.0122x elapsed=0:04:02.40    \nframe=  358 fps=1.5 q=46.1 size=    1536KiB time=00:00:02.96 bitrate=4241.5kbits/s speed=0.0122x elapsed=0:04:02.92    \nframe=  359 fps=1.5 q=46.9 size=    1536KiB time=00:00:02.97 bitrate=4229.7kbits/s speed=0.0122x elapsed=0:04:03.44    \nframe=  360 fps=1.5 q=38.5 size=    1536KiB time=00:00:02.98 bitrate=4217.9kbits/s speed=0.0122x elapsed=0:04:03.96    \nframe=  362 fps=1.5 q=47.8 size=    1536KiB time=00:00:03.00 bitrate=4194.4kbits/s speed=0.0123x elapsed=0:04:04.48    \nframe=  363 fps=1.5 q=46.9 size=    1536KiB time=00:00:03.00 bitrate=4182.8kbits/s speed=0.0123x elapsed=0:04:04.99    \nframe=  364 fps=1.5 q=38.8 size=    1536KiB time=00:00:03.01 bitrate=4171.2kbits/s speed=0.0123x elapsed=0:04:05.50    \nframe=  365 fps=1.5 q=45.1 size=    1536KiB time=00:00:03.02 bitrate=4159.8kbits/s speed=0.0123x elapsed=0:04:06.03    \nframe=  367 fps=1.5 q=47.0 size=    1536KiB time=00:00:03.04 bitrate=4137.0kbits/s speed=0.0123x elapsed=0:04:06.54    \nframe=  367 fps=1.5 q=47.0 size=    1536KiB time=00:00:03.04 bitrate=4137.0kbits/s speed=0.0123x elapsed=0:04:07.07    \nframe=  368 fps=1.5 q=39.0 size=    1536KiB time=00:00:03.05 bitrate=4125.7kbits/s speed=0.0123x elapsed=0:04:07.58    \nframe=  368 fps=1.5 q=39.0 size=    1536KiB time=00:00:03.05 bitrate=4125.7kbits/s speed=0.0123x elapsed=0:04:08.10    \nframe=  368 fps=1.5 q=39.0 size=    1536KiB time=00:00:03.05 bitrate=4125.7kbits/s speed=0.0123x elapsed=0:04:08.63    \nframe=  369 fps=1.5 q=45.2 size=    1536KiB time=00:00:03.05 bitrate=4114.4kbits/s speed=0.0123x elapsed=0:04:09.13    \nframe=  371 fps=1.5 q=46.9 size=    1536KiB time=00:00:03.07 bitrate=4092.1kbits/s speed=0.0123x elapsed=0:04:09.65    \nframe=  371 fps=1.5 q=46.9 size=    1536KiB time=00:00:03.07 bitrate=4092.1kbits/s speed=0.0123x elapsed=0:04:10.18    \nframe=  371 fps=1.5 q=46.9 size=    1536KiB time=00:00:03.07 bitrate=4092.1kbits/s speed=0.0123x elapsed=0:04:10.70    \nframe=  372 fps=1.5 q=38.6 size=    1536KiB time=00:00:03.08 bitrate=4081.1kbits/s speed=0.0123x elapsed=0:04:11.22    \nframe=  372 fps=1.5 q=38.6 size=    1536KiB time=00:00:03.08 bitrate=4081.1kbits/s speed=0.0122x elapsed=0:04:11.76    \nframe=  373 fps=1.5 q=45.4 size=    1536KiB time=00:00:03.09 bitrate=4070.1kbits/s speed=0.0123x elapsed=0:04:12.28    \nframe=  374 fps=1.5 q=47.0 size=    1536KiB time=00:00:03.10 bitrate=4059.1kbits/s speed=0.0123x elapsed=0:04:12.79    \nframe=  375 fps=1.5 q=47.1 size=    1536KiB time=00:00:03.10 bitrate=4048.2kbits/s speed=0.0123x elapsed=0:04:13.31    \nframe=  376 fps=1.5 q=38.4 size=    1536KiB time=00:00:03.11 bitrate=4037.4kbits/s speed=0.0123x elapsed=0:04:13.82    \nframe=  376 fps=1.5 q=38.4 size=    1536KiB time=00:00:03.11 bitrate=4037.4kbits/s speed=0.0123x elapsed=0:04:14.34    \nframe=  376 fps=1.5 q=38.4 size=    1536KiB time=00:00:03.11 bitrate=4037.4kbits/s speed=0.0122x elapsed=0:04:14.85    \nframe=  377 fps=1.5 q=46.1 size=    1536KiB time=00:00:03.12 bitrate=4026.6kbits/s speed=0.0122x elapsed=0:04:15.36    \nframe=  379 fps=1.5 q=47.7 size=    1536KiB time=00:00:03.14 bitrate=4005.3kbits/s speed=0.0123x elapsed=0:04:15.89    \nframe=  379 fps=1.5 q=47.7 size=    1536KiB time=00:00:03.14 bitrate=4005.3kbits/s speed=0.0123x elapsed=0:04:16.40    \nframe=  379 fps=1.5 q=47.7 size=    1536KiB time=00:00:03.14 bitrate=4005.3kbits/s speed=0.0122x elapsed=0:04:16.92    \nframe=  380 fps=1.5 q=39.3 size=    1536KiB time=00:00:03.15 bitrate=3994.7kbits/s speed=0.0122x elapsed=0:04:17.44    \nframe=  380 fps=1.5 q=39.3 size=    1536KiB time=00:00:03.15 bitrate=3994.7kbits/s speed=0.0122x elapsed=0:04:17.96    \nframe=  381 fps=1.5 q=45.3 size=    1536KiB time=00:00:03.15 bitrate=3984.1kbits/s speed=0.0122x elapsed=0:04:18.48    \nframe=  381 fps=1.5 q=45.3 size=    1536KiB time=00:00:03.15 bitrate=3984.1kbits/s speed=0.0122x elapsed=0:04:18.99    \nframe=  383 fps=1.5 q=47.7 size=    1536KiB time=00:00:03.17 bitrate=3963.2kbits/s speed=0.0122x elapsed=0:04:19.51    \nframe=  383 fps=1.5 q=47.7 size=    1536KiB time=00:00:03.17 bitrate=3963.2kbits/s speed=0.0122x elapsed=0:04:20.03    \nframe=  383 fps=1.5 q=47.7 size=    1536KiB time=00:00:03.17 bitrate=3963.2kbits/s speed=0.0122x elapsed=0:04:20.54    \nframe=  383 fps=1.5 q=47.7 size=    1536KiB time=00:00:03.17 bitrate=3963.2kbits/s speed=0.0122x elapsed=0:04:21.05    \nframe=  384 fps=1.5 q=40.4 size=    1536KiB time=00:00:03.18 bitrate=3952.9kbits/s speed=0.0122x elapsed=0:04:21.57    \nframe=  385 fps=1.5 q=46.1 size=    1536KiB time=00:00:03.19 bitrate=3942.5kbits/s speed=0.0122x elapsed=0:04:22.10    \nframe=  385 fps=1.5 q=46.1 size=    1536KiB time=00:00:03.19 bitrate=3942.5kbits/s speed=0.0122x elapsed=0:04:22.61    \nframe=  387 fps=1.5 q=47.7 size=    1536KiB time=00:00:03.20 bitrate=3922.1kbits/s speed=0.0122x elapsed=0:04:23.13    \nframe=  388 fps=1.5 q=39.8 size=    1536KiB time=00:00:03.21 bitrate=3911.9kbits/s speed=0.0122x elapsed=0:04:23.65    \nframe=  389 fps=1.5 q=46.0 size=    1536KiB time=00:00:03.22 bitrate=3901.8kbits/s speed=0.0122x elapsed=0:04:24.16    \nframe=  390 fps=1.5 q=47.9 size=    1536KiB time=00:00:03.23 bitrate=3891.7kbits/s speed=0.0122x elapsed=0:04:24.69    \nframe=  391 fps=1.5 q=48.0 size=    1536KiB time=00:00:03.24 bitrate=3881.7kbits/s speed=0.0122x elapsed=0:04:25.20    \nframe=  391 fps=1.5 q=48.0 size=    1536KiB time=00:00:03.24 bitrate=3881.7kbits/s speed=0.0122x elapsed=0:04:25.71    \nframe=  392 fps=1.5 q=40.4 size=    1536KiB time=00:00:03.25 bitrate=3871.8kbits/s speed=0.0122x elapsed=0:04:26.24    \nframe=  392 fps=1.5 q=40.4 size=    1536KiB time=00:00:03.25 bitrate=3871.8kbits/s speed=0.0122x elapsed=0:04:26.76    \nframe=  393 fps=1.5 q=46.0 size=    1536KiB time=00:00:03.25 bitrate=3861.9kbits/s speed=0.0122x elapsed=0:04:27.28    \nframe=  394 fps=1.5 q=47.8 size=    1536KiB time=00:00:03.26 bitrate=3852.0kbits/s speed=0.0122x elapsed=0:04:27.80    \nframe=  395 fps=1.5 q=48.0 size=    1536KiB time=00:00:03.27 bitrate=3842.2kbits/s speed=0.0122x elapsed=0:04:28.33    \nframe=  396 fps=1.5 q=40.4 size=    1536KiB time=00:00:03.28 bitrate=3832.5kbits/s speed=0.0122x elapsed=0:04:28.85    \nframe=  396 fps=1.5 q=40.4 size=    1536KiB time=00:00:03.28 bitrate=3832.5kbits/s speed=0.0122x elapsed=0:04:29.37    \nframe=  397 fps=1.5 q=46.4 size=    1536KiB time=00:00:03.29 bitrate=3822.8kbits/s speed=0.0122x elapsed=0:04:29.89    \nframe=  398 fps=1.5 q=48.0 size=    1536KiB time=00:00:03.30 bitrate=3813.1kbits/s speed=0.0122x elapsed=0:04:30.40    \nframe=  399 fps=1.5 q=40.2 size=    1536KiB time=00:00:03.30 bitrate=3803.5kbits/s speed=0.0122x elapsed=0:04:30.91    \nframe=  400 fps=1.5 q=46.8 size=    1536KiB time=00:00:03.31 bitrate=3793.9kbits/s speed=0.0122x elapsed=0:04:31.44    \nframe=  400 fps=1.5 q=46.8 size=    1536KiB time=00:00:03.31 bitrate=3793.9kbits/s speed=0.0122x elapsed=0:04:31.96    \nframe=  401 fps=1.5 q=47.9 size=    1536KiB time=00:00:03.32 bitrate=3784.4kbits/s speed=0.0122x elapsed=0:04:32.48    \nframe=  402 fps=1.5 q=40.7 size=    1536KiB time=00:00:03.33 bitrate=3775.0kbits/s speed=0.0122x elapsed=0:04:32.99    \nframe=  403 fps=1.5 q=47.7 size=    1536KiB time=00:00:03.34 bitrate=3765.6kbits/s speed=0.0122x elapsed=0:04:33.50    \nframe=  404 fps=1.5 q=40.9 size=    1536KiB time=00:00:03.35 bitrate=3756.2kbits/s speed=0.0122x elapsed=0:04:34.03    \nframe=  404 fps=1.5 q=40.9 size=    1536KiB time=00:00:03.35 bitrate=3756.2kbits/s speed=0.0122x elapsed=0:04:34.54    \nframe=  404 fps=1.5 q=40.9 size=    1536KiB time=00:00:03.35 bitrate=3756.2kbits/s speed=0.0122x elapsed=0:04:35.07    \nframe=  404 fps=1.5 q=40.9 size=    1536KiB time=00:00:03.35 bitrate=3756.2kbits/s speed=0.0122x elapsed=0:04:35.59    \nframe=  405 fps=1.5 q=45.7 size=    1536KiB time=00:00:03.35 bitrate=3746.9kbits/s speed=0.0122x elapsed=0:04:36.11    \nframe=  405 fps=1.5 q=45.7 size=    1536KiB time=00:00:03.35 bitrate=3746.9kbits/s speed=0.0121x elapsed=0:04:36.63    \nframe=  405 fps=1.5 q=45.7 size=    1536KiB time=00:00:03.35 bitrate=3746.9kbits/s speed=0.0121x elapsed=0:04:37.15    \nframe=  405 fps=1.5 q=45.7 size=    1536KiB time=00:00:03.35 bitrate=3746.9kbits/s speed=0.0121x elapsed=0:04:37.67    \nframe=  406 fps=1.5 q=48.0 size=    1536KiB time=00:00:03.36 bitrate=3737.6kbits/s speed=0.0121x elapsed=0:04:38.19    \nframe=  407 fps=1.5 q=40.0 size=    1536KiB time=00:00:03.37 bitrate=3728.4kbits/s speed=0.0121x elapsed=0:04:38.69    \nframe=  408 fps=1.5 q=46.8 size=    1536KiB time=00:00:03.38 bitrate=3719.2kbits/s speed=0.0121x elapsed=0:04:39.21    \nframe=  410 fps=1.5 q=48.8 size=    1536KiB time=00:00:03.40 bitrate=3701.0kbits/s speed=0.0122x elapsed=0:04:39.73    \nframe=  410 fps=1.5 q=48.8 size=    1536KiB time=00:00:03.40 bitrate=3701.0kbits/s speed=0.0121x elapsed=0:04:40.24    \nframe=  411 fps=1.5 q=39.7 size=    1536KiB time=00:00:03.40 bitrate=3691.9kbits/s speed=0.0121x elapsed=0:04:40.76    \nframe=  413 fps=1.5 q=48.1 size=    1792KiB time=00:00:03.42 bitrate=4286.3kbits/s speed=0.0122x elapsed=0:04:41.28    \nframe=  414 fps=1.5 q=48.0 size=    1792KiB time=00:00:03.43 bitrate=4275.8kbits/s speed=0.0122x elapsed=0:04:41.79    \nframe=  415 fps=1.5 q=39.9 size=    1792KiB time=00:00:03.44 bitrate=4265.5kbits/s speed=0.0122x elapsed=0:04:42.31    \nframe=  416 fps=1.5 q=46.9 size=    1792KiB time=00:00:03.45 bitrate=4255.2kbits/s speed=0.0122x elapsed=0:04:42.83    \nframe=  416 fps=1.5 q=46.9 size=    1792KiB time=00:00:03.45 bitrate=4255.2kbits/s speed=0.0122x elapsed=0:04:43.34    \nframe=  418 fps=1.5 q=48.7 size=    1792KiB time=00:00:03.46 bitrate=4234.7kbits/s speed=0.0122x elapsed=0:04:43.85    \nframe=  420 fps=1.5 q=40.1 size=    1792KiB time=00:00:03.48 bitrate=4214.5kbits/s speed=0.0122x elapsed=0:04:44.38    \nframe=  421 fps=1.5 q=46.8 size=    1792KiB time=00:00:03.49 bitrate=4204.4kbits/s speed=0.0123x elapsed=0:04:44.89    \nframe=  422 fps=1.5 q=48.7 size=    1792KiB time=00:00:03.50 bitrate=4194.4kbits/s speed=0.0123x elapsed=0:04:45.42    \nframe=  423 fps=1.5 q=39.6 size=    1792KiB time=00:00:03.50 bitrate=4184.4kbits/s speed=0.0123x elapsed=0:04:45.94    \nframe=  425 fps=1.5 q=48.8 size=    1792KiB time=00:00:03.52 bitrate=4164.7kbits/s speed=0.0123x elapsed=0:04:46.44    \nframe=  426 fps=1.5 q=39.9 size=    1792KiB time=00:00:03.53 bitrate=4154.8kbits/s speed=0.0123x elapsed=0:04:46.97    \nframe=  427 fps=1.5 q=40.2 size=    1792KiB time=00:00:03.54 bitrate=4145.1kbits/s speed=0.0123x elapsed=0:04:47.48    \nframe=  428 fps=1.5 q=46.4 size=    1792KiB time=00:00:03.55 bitrate=4135.3kbits/s speed=0.0123x elapsed=0:04:47.99    \nframe=  430 fps=1.5 q=48.0 size=    1792KiB time=00:00:03.56 bitrate=4116.0kbits/s speed=0.0124x elapsed=0:04:48.50    \nframe=  431 fps=1.5 q=38.9 size=    1792KiB time=00:00:03.57 bitrate=4106.4kbits/s speed=0.0124x elapsed=0:04:49.03    \nframe=  432 fps=1.5 q=46.3 size=    1792KiB time=00:00:03.58 bitrate=4096.9kbits/s speed=0.0124x elapsed=0:04:49.54    \nframe=  434 fps=1.5 q=47.8 size=    1792KiB time=00:00:03.60 bitrate=4077.9kbits/s speed=0.0124x elapsed=0:04:50.06    \nframe=  435 fps=1.5 q=39.9 size=    1792KiB time=00:00:03.60 bitrate=4068.5kbits/s speed=0.0124x elapsed=0:04:50.57    \nframe=  436 fps=1.5 q=45.7 size=    1792KiB time=00:00:03.61 bitrate=4059.1kbits/s speed=0.0124x elapsed=0:04:51.09    \nframe=  438 fps=1.5 q=39.0 size=    1792KiB time=00:00:03.63 bitrate=4040.5kbits/s speed=0.0125x elapsed=0:04:51.60    \nframe=  439 fps=1.5 q=46.2 size=    1792KiB time=00:00:03.64 bitrate=4031.2kbits/s speed=0.0125x elapsed=0:04:52.13    \nframe=  441 fps=1.5 q=38.7 size=    1792KiB time=00:00:03.65 bitrate=4012.9kbits/s speed=0.0125x elapsed=0:04:52.63    \nframe=  442 fps=1.5 q=46.9 size=    1792KiB time=00:00:03.66 bitrate=4003.7kbits/s speed=0.0125x elapsed=0:04:53.15    \nframe=  443 fps=1.5 q=38.8 size=    1792KiB time=00:00:03.67 bitrate=3994.7kbits/s speed=0.0125x elapsed=0:04:53.67    \nframe=  444 fps=1.5 q=46.3 size=    1792KiB time=00:00:03.68 bitrate=3985.6kbits/s speed=0.0125x elapsed=0:04:54.19    \nframe=  444 fps=1.5 q=46.3 size=    1792KiB time=00:00:03.68 bitrate=3985.6kbits/s speed=0.0125x elapsed=0:04:54.72    \nframe=  446 fps=1.5 q=47.9 size=    1792KiB time=00:00:03.70 bitrate=3967.7kbits/s speed=0.0125x elapsed=0:04:55.23    \nframe=  446 fps=1.5 q=47.9 size=    1792KiB time=00:00:03.70 bitrate=3967.7kbits/s speed=0.0125x elapsed=0:04:55.75    \nframe=  447 fps=1.5 q=38.9 size=    1792KiB time=00:00:03.70 bitrate=3958.8kbits/s speed=0.0125x elapsed=0:04:56.28    \nframe=  447 fps=1.5 q=38.9 size=    1792KiB time=00:00:03.70 bitrate=3958.8kbits/s speed=0.0125x elapsed=0:04:56.81    \nframe=  448 fps=1.5 q=47.0 size=    1792KiB time=00:00:03.71 bitrate=3949.9kbits/s speed=0.0125x elapsed=0:04:57.33    \nframe=  449 fps=1.5 q=48.0 size=    1792KiB time=00:00:03.72 bitrate=3941.1kbits/s speed=0.0125x elapsed=0:04:57.85    \nframe=  449 fps=1.5 q=48.0 size=    1792KiB time=00:00:03.72 bitrate=3941.1kbits/s speed=0.0125x elapsed=0:04:58.38    \nframe=  449 fps=1.5 q=48.0 size=    1792KiB time=00:00:03.72 bitrate=3941.1kbits/s speed=0.0125x elapsed=0:04:58.89    \nframe=  450 fps=1.5 q=39.0 size=    1792KiB time=00:00:03.73 bitrate=3932.3kbits/s speed=0.0125x elapsed=0:04:59.42    \nframe=  450 fps=1.5 q=39.0 size=    1792KiB time=00:00:03.73 bitrate=3932.3kbits/s speed=0.0124x elapsed=0:04:59.95    \nframe=  450 fps=1.5 q=39.0 size=    1792KiB time=00:00:03.73 bitrate=3932.3kbits/s speed=0.0124x elapsed=0:05:00.48    \nframe=  451 fps=1.5 q=47.0 size=    1792KiB time=00:00:03.74 bitrate=3923.5kbits/s speed=0.0124x elapsed=0:05:01.00    \nframe=  451 fps=1.5 q=47.0 size=    1792KiB time=00:00:03.74 bitrate=3923.5kbits/s speed=0.0124x elapsed=0:05:01.52    \nframe=  452 fps=1.5 q=47.9 size=    1792KiB time=00:00:03.75 bitrate=3914.8kbits/s speed=0.0124x elapsed=0:05:02.03    \nframe=  453 fps=1.5 q=48.2 size=    1792KiB time=00:00:03.75 bitrate=3906.1kbits/s speed=0.0124x elapsed=0:05:02.56    \nframe=  454 fps=1.5 q=48.1 size=    1792KiB time=00:00:03.76 bitrate=3897.5kbits/s speed=0.0124x elapsed=0:05:03.09    \nframe=  454 fps=1.5 q=48.1 size=    1792KiB time=00:00:03.76 bitrate=3897.5kbits/s speed=0.0124x elapsed=0:05:03.61    \nframe=  455 fps=1.5 q=39.2 size=    1792KiB time=00:00:03.77 bitrate=3888.9kbits/s speed=0.0124x elapsed=0:05:04.14    \nframe=  455 fps=1.5 q=39.2 size=    1792KiB time=00:00:03.77 bitrate=3888.9kbits/s speed=0.0124x elapsed=0:05:04.67    \nframe=  456 fps=1.5 q=47.0 size=    1792KiB time=00:00:03.78 bitrate=3880.3kbits/s speed=0.0124x elapsed=0:05:05.19    \nframe=  456 fps=1.5 q=47.0 size=    1792KiB time=00:00:03.78 bitrate=3880.3kbits/s speed=0.0124x elapsed=0:05:05.71    \nframe=  457 fps=1.5 q=48.0 size=    1792KiB time=00:00:03.79 bitrate=3871.8kbits/s speed=0.0124x elapsed=0:05:06.24    \nframe=  458 fps=1.5 q=39.1 size=    1792KiB time=00:00:03.80 bitrate=3863.3kbits/s speed=0.0124x elapsed=0:05:06.75    \nframe=  459 fps=1.5 q=46.8 size=    1792KiB time=00:00:03.80 bitrate=3854.8kbits/s speed=0.0124x elapsed=0:05:07.28    \nframe=  459 fps=1.5 q=46.8 size=    1792KiB time=00:00:03.80 bitrate=3854.8kbits/s speed=0.0124x elapsed=0:05:07.80    \nframe=  460 fps=1.5 q=47.9 size=    1792KiB time=00:00:03.81 bitrate=3846.4kbits/s speed=0.0124x elapsed=0:05:08.30    \nframe=  461 fps=1.5 q=38.7 size=    1792KiB time=00:00:03.82 bitrate=3838.0kbits/s speed=0.0124x elapsed=0:05:08.82    \nframe=  461 fps=1.5 q=38.7 size=    1792KiB time=00:00:03.82 bitrate=3838.0kbits/s speed=0.0124x elapsed=0:05:09.34    \nframe=  461 fps=1.5 q=38.7 size=    1792KiB time=00:00:03.82 bitrate=3838.0kbits/s speed=0.0123x elapsed=0:05:09.86    \nframe=  462 fps=1.5 q=46.2 size=    1792KiB time=00:00:03.83 bitrate=3829.7kbits/s speed=0.0123x elapsed=0:05:10.39    \nframe=  463 fps=1.5 q=47.9 size=    1792KiB time=00:00:03.84 bitrate=3821.4kbits/s speed=0.0124x elapsed=0:05:10.90    \nframe=  464 fps=1.5 q=48.0 size=    1792KiB time=00:00:03.85 bitrate=3813.1kbits/s speed=0.0124x elapsed=0:05:11.42    \nframe=  464 fps=1.5 q=48.0 size=    1792KiB time=00:00:03.85 bitrate=3813.1kbits/s speed=0.0123x elapsed=0:05:11.93    \nframe=  465 fps=1.5 q=38.5 size=    1792KiB time=00:00:03.85 bitrate=3804.9kbits/s speed=0.0123x elapsed=0:05:12.46    \nframe=  466 fps=1.5 q=45.5 size=    1792KiB time=00:00:03.86 bitrate=3796.7kbits/s speed=0.0124x elapsed=0:05:12.98    \nframe=  468 fps=1.5 q=47.1 size=    1792KiB time=00:00:03.88 bitrate=3780.4kbits/s speed=0.0124x elapsed=0:05:13.49    \nframe=  468 fps=1.5 q=47.1 size=    1792KiB time=00:00:03.88 bitrate=3780.4kbits/s speed=0.0124x elapsed=0:05:14.03    \nframe=  468 fps=1.5 q=47.1 size=    1792KiB time=00:00:03.88 bitrate=3780.4kbits/s speed=0.0123x elapsed=0:05:14.56    \nframe=  469 fps=1.5 q=38.1 size=    1792KiB time=00:00:03.89 bitrate=3772.3kbits/s speed=0.0124x elapsed=0:05:15.07    \nframe=  470 fps=1.5 q=45.5 size=    1792KiB time=00:00:03.90 bitrate=3764.2kbits/s speed=0.0124x elapsed=0:05:15.59    \nframe=  470 fps=1.5 q=45.5 size=    1792KiB time=00:00:03.90 bitrate=3764.2kbits/s speed=0.0123x elapsed=0:05:16.10    \nframe=  472 fps=1.5 q=47.1 size=    1792KiB time=00:00:03.91 bitrate=3748.2kbits/s speed=0.0124x elapsed=0:05:16.61    \nframe=  472 fps=1.5 q=47.1 size=    1792KiB time=00:00:03.91 bitrate=3748.2kbits/s speed=0.0123x elapsed=0:05:17.15    \nframe=  473 fps=1.5 q=38.3 size=    1792KiB time=00:00:03.92 bitrate=3740.2kbits/s speed=0.0124x elapsed=0:05:17.67    \nframe=  474 fps=1.5 q=45.3 size=    2048KiB time=00:00:03.93 bitrate=4265.5kbits/s speed=0.0124x elapsed=0:05:18.20    \nframe=  475 fps=1.5 q=47.0 size=    2048KiB time=00:00:03.94 bitrate=4256.5kbits/s speed=0.0124x elapsed=0:05:18.72    \nframe=  476 fps=1.5 q=47.7 size=    2048KiB time=00:00:03.95 bitrate=4247.5kbits/s speed=0.0124x elapsed=0:05:19.24    \nframe=  477 fps=1.5 q=47.1 size=    2048KiB time=00:00:03.95 bitrate=4238.5kbits/s speed=0.0124x elapsed=0:05:19.75    \nframe=  478 fps=1.5 q=39.3 size=    2048KiB time=00:00:03.96 bitrate=4229.6kbits/s speed=0.0124x elapsed=0:05:20.26    \nframe=  479 fps=1.5 q=47.5 size=    2048KiB time=00:00:03.97 bitrate=4220.8kbits/s speed=0.0124x elapsed=0:05:20.78    \nframe=  479 fps=1.5 q=47.5 size=    2048KiB time=00:00:03.97 bitrate=4220.8kbits/s speed=0.0124x elapsed=0:05:21.29    \nframe=  480 fps=1.5 q=48.0 size=    2048KiB time=00:00:03.98 bitrate=4211.9kbits/s speed=0.0124x elapsed=0:05:21.80    \nframe=  481 fps=1.5 q=39.4 size=    2048KiB time=00:00:03.99 bitrate=4203.1kbits/s speed=0.0124x elapsed=0:05:22.32    \nframe=  482 fps=1.5 q=47.5 size=    2048KiB time=00:00:04.00 bitrate=4194.4kbits/s speed=0.0124x elapsed=0:05:22.85    \nframe=  483 fps=1.5 q=49.0 size=    2048KiB time=00:00:04.00 bitrate=4185.7kbits/s speed=0.0124x elapsed=0:05:23.37    \nframe=  484 fps=1.5 q=48.9 size=    2048KiB time=00:00:04.01 bitrate=4177.0kbits/s speed=0.0124x elapsed=0:05:23.89    \nframe=  484 fps=1.5 q=48.9 size=    2048KiB time=00:00:04.01 bitrate=4177.0kbits/s speed=0.0124x elapsed=0:05:24.40    \nframe=  484 fps=1.5 q=48.9 size=    2048KiB time=00:00:04.01 bitrate=4177.0kbits/s speed=0.0124x elapsed=0:05:24.92    \nframe=  485 fps=1.5 q=39.2 size=    2048KiB time=00:00:04.02 bitrate=4168.3kbits/s speed=0.0124x elapsed=0:05:25.45    \nframe=  486 fps=1.5 q=47.2 size=    2048KiB time=00:00:04.03 bitrate=4159.7kbits/s speed=0.0124x elapsed=0:05:25.98    \nframe=  487 fps=1.5 q=49.0 size=    2048KiB time=00:00:04.04 bitrate=4151.2kbits/s speed=0.0124x elapsed=0:05:26.50    \nframe=  488 fps=1.5 q=48.9 size=    2048KiB time=00:00:04.05 bitrate=4142.6kbits/s speed=0.0124x elapsed=0:05:27.02    \nframe=  488 fps=1.5 q=48.9 size=    2048KiB time=00:00:04.05 bitrate=4142.6kbits/s speed=0.0124x elapsed=0:05:27.54    \nframe=  489 fps=1.5 q=39.3 size=    2048KiB time=00:00:04.05 bitrate=4134.1kbits/s speed=0.0124x elapsed=0:05:28.06    \nframe=  489 fps=1.5 q=39.3 size=    2048KiB time=00:00:04.05 bitrate=4134.1kbits/s speed=0.0124x elapsed=0:05:28.59    \nframe=  491 fps=1.5 q=48.9 size=    2048KiB time=00:00:04.07 bitrate=4117.2kbits/s speed=0.0124x elapsed=0:05:29.10    \nframe=  491 fps=1.5 q=48.9 size=    2048KiB time=00:00:04.07 bitrate=4117.2kbits/s speed=0.0124x elapsed=0:05:29.64    \nframe=  492 fps=1.5 q=48.8 size=    2048KiB time=00:00:04.08 bitrate=4108.8kbits/s speed=0.0124x elapsed=0:05:30.14    \nframe=  493 fps=1.5 q=38.9 size=    2048KiB time=00:00:04.09 bitrate=4100.4kbits/s speed=0.0124x elapsed=0:05:30.67    \nframe=  493 fps=1.5 q=38.9 size=    2048KiB time=00:00:04.09 bitrate=4100.4kbits/s speed=0.0124x elapsed=0:05:31.19    \nframe=  494 fps=1.5 q=48.1 size=    2048KiB time=00:00:04.10 bitrate=4092.1kbits/s speed=0.0124x elapsed=0:05:31.69    \nframe=  495 fps=1.5 q=49.0 size=    2048KiB time=00:00:04.10 bitrate=4083.8kbits/s speed=0.0124x elapsed=0:05:32.22    \nframe=  495 fps=1.5 q=49.0 size=    2048KiB time=00:00:04.10 bitrate=4083.8kbits/s speed=0.0123x elapsed=0:05:32.76    \nframe=  496 fps=1.5 q=38.6 size=    2048KiB time=00:00:04.11 bitrate=4075.5kbits/s speed=0.0124x elapsed=0:05:33.29    \nframe=  496 fps=1.5 q=38.6 size=    2048KiB time=00:00:04.11 bitrate=4075.5kbits/s speed=0.0123x elapsed=0:05:33.81    \nframe=  497 fps=1.5 q=47.0 size=    2048KiB time=00:00:04.12 bitrate=4067.3kbits/s speed=0.0123x elapsed=0:05:34.32    \nframe=  498 fps=1.5 q=47.9 size=    2048KiB time=00:00:04.13 bitrate=4059.1kbits/s speed=0.0123x elapsed=0:05:34.85    \nframe=  499 fps=1.5 q=48.1 size=    2048KiB time=00:00:04.14 bitrate=4050.9kbits/s speed=0.0123x elapsed=0:05:35.36    \nframe=  500 fps=1.5 q=47.9 size=    2048KiB time=00:00:04.15 bitrate=4042.8kbits/s speed=0.0124x elapsed=0:05:35.88    \nframe=  500 fps=1.5 q=47.9 size=    2048KiB time=00:00:04.15 bitrate=4042.8kbits/s speed=0.0123x elapsed=0:05:36.40    \nframe=  501 fps=1.5 q=38.5 size=    2048KiB time=00:00:04.15 bitrate=4034.7kbits/s speed=0.0123x elapsed=0:05:36.92    \nframe=  502 fps=1.5 q=38.9 size=    2048KiB time=00:00:04.16 bitrate=4026.6kbits/s speed=0.0123x elapsed=0:05:37.44    \nframe=  503 fps=1.5 q=45.8 size=    2048KiB time=00:00:04.17 bitrate=4018.6kbits/s speed=0.0124x elapsed=0:05:37.97    \nframe=  503 fps=1.5 q=45.8 size=    2048KiB time=00:00:04.17 bitrate=4018.6kbits/s speed=0.0123x elapsed=0:05:38.48    \nframe=  504 fps=1.5 q=48.1 size=    2048KiB time=00:00:04.18 bitrate=4010.6kbits/s speed=0.0123x elapsed=0:05:39.00    \nframe=  505 fps=1.5 q=37.7 size=    2048KiB time=00:00:04.19 bitrate=4002.6kbits/s speed=0.0123x elapsed=0:05:39.53    \nframe=  505 fps=1.5 q=37.7 size=    2048KiB time=00:00:04.19 bitrate=4002.6kbits/s speed=0.0123x elapsed=0:05:40.07    \nframe=  505 fps=1.5 q=37.7 size=    2048KiB time=00:00:04.19 bitrate=4002.6kbits/s speed=0.0123x elapsed=0:05:40.62    \nframe=  506 fps=1.5 q=45.5 size=    2048KiB time=00:00:04.20 bitrate=3994.7kbits/s speed=0.0123x elapsed=0:05:41.14    \nframe=  506 fps=1.5 q=45.5 size=    2048KiB time=00:00:04.20 bitrate=3994.7kbits/s speed=0.0123x elapsed=0:05:41.68    \nframe=  508 fps=1.5 q=47.0 size=    2048KiB time=00:00:04.21 bitrate=3978.9kbits/s speed=0.0123x elapsed=0:05:42.20    \nframe=  509 fps=1.5 q=38.1 size=    2048KiB time=00:00:04.22 bitrate=3971.0kbits/s speed=0.0123x elapsed=0:05:42.75    \nframe=  510 fps=1.5 q=46.4 size=    2048KiB time=00:00:04.23 bitrate=3963.2kbits/s speed=0.0123x elapsed=0:05:43.30    \nframe=  510 fps=1.5 q=46.4 size=    2048KiB time=00:00:04.23 bitrate=3963.2kbits/s speed=0.0123x elapsed=0:05:43.82    \nframe=  512 fps=1.5 q=47.1 size=    2048KiB time=00:00:04.25 bitrate=3947.7kbits/s speed=0.0123x elapsed=0:05:44.33    \nframe=  512 fps=1.5 q=47.1 size=    2048KiB time=00:00:04.25 bitrate=3947.7kbits/s speed=0.0123x elapsed=0:05:44.86    \nframe=  513 fps=1.5 q=38.1 size=    2048KiB time=00:00:04.25 bitrate=3939.9kbits/s speed=0.0123x elapsed=0:05:45.37    \nframe=  514 fps=1.5 q=46.3 size=    2048KiB time=00:00:04.26 bitrate=3932.2kbits/s speed=0.0123x elapsed=0:05:45.90    \nframe=  516 fps=1.5 q=47.0 size=    2048KiB time=00:00:04.28 bitrate=3916.9kbits/s speed=0.0124x elapsed=0:05:46.45    \nframe=  516 fps=1.5 q=47.0 size=    2048KiB time=00:00:04.28 bitrate=3916.9kbits/s speed=0.0123x elapsed=0:05:46.96    \nframe=  518 fps=1.5 q=45.9 size=    2048KiB time=00:00:04.30 bitrate=3901.8kbits/s speed=0.0124x elapsed=0:05:47.47    \nframe=  518 fps=1.5 q=45.9 size=    2048KiB time=00:00:04.30 bitrate=3901.8kbits/s speed=0.0124x elapsed=0:05:47.99    \nframe=  519 fps=1.5 q=47.0 size=    2048KiB time=00:00:04.30 bitrate=3894.2kbits/s speed=0.0124x elapsed=0:05:48.52    \nframe=  520 fps=1.5 q=37.3 size=    2048KiB time=00:00:04.31 bitrate=3886.7kbits/s speed=0.0124x elapsed=0:05:49.04    \nframe=  521 fps=1.5 q=45.4 size=    2048KiB time=00:00:04.32 bitrate=3879.2kbits/s speed=0.0124x elapsed=0:05:49.58    \nframe=  521 fps=1.5 q=45.4 size=    2048KiB time=00:00:04.32 bitrate=3879.2kbits/s speed=0.0124x elapsed=0:05:50.09    \nframe=  523 fps=1.5 q=47.0 size=    2048KiB time=00:00:04.34 bitrate=3864.3kbits/s speed=0.0124x elapsed=0:05:50.60    \nframe=  523 fps=1.5 q=47.0 size=    2048KiB time=00:00:04.34 bitrate=3864.3kbits/s speed=0.0124x elapsed=0:05:51.11    \nframe=  524 fps=1.5 q=37.1 size=    2048KiB time=00:00:04.35 bitrate=3856.9kbits/s speed=0.0124x elapsed=0:05:51.65    \nframe=  525 fps=1.5 q=46.5 size=    2048KiB time=00:00:04.35 bitrate=3849.5kbits/s speed=0.0124x elapsed=0:05:52.21    \nframe=  526 fps=1.5 q=47.0 size=    2048KiB time=00:00:04.36 bitrate=3842.2kbits/s speed=0.0124x elapsed=0:05:52.76    \nframe=  527 fps=1.5 q=37.5 size=    2048KiB time=00:00:04.37 bitrate=3834.9kbits/s speed=0.0124x elapsed=0:05:53.29    \nframe=  528 fps=1.5 q=45.6 size=    2048KiB time=00:00:04.38 bitrate=3827.6kbits/s speed=0.0124x elapsed=0:05:53.82    \nframe=  528 fps=1.5 q=45.6 size=    2048KiB time=00:00:04.38 bitrate=3827.6kbits/s speed=0.0124x elapsed=0:05:54.35    \nframe=  530 fps=1.5 q=47.0 size=    2048KiB time=00:00:04.40 bitrate=3813.1kbits/s speed=0.0124x elapsed=0:05:54.87    \nframe=  531 fps=1.5 q=37.3 size=    2048KiB time=00:00:04.40 bitrate=3805.9kbits/s speed=0.0124x elapsed=0:05:55.40    \nframe=  532 fps=1.5 q=46.5 size=    2048KiB time=00:00:04.41 bitrate=3798.7kbits/s speed=0.0124x elapsed=0:05:55.95    \nframe=  532 fps=1.5 q=46.5 size=    2048KiB time=00:00:04.41 bitrate=3798.7kbits/s speed=0.0124x elapsed=0:05:56.51    \nframe=  533 fps=1.5 q=47.0 size=    2048KiB time=00:00:04.42 bitrate=3791.5kbits/s speed=0.0124x elapsed=0:05:57.03    \nframe=  534 fps=1.5 q=48.0 size=    2048KiB time=00:00:04.43 bitrate=3784.4kbits/s speed=0.0124x elapsed=0:05:57.57    \nframe=  535 fps=1.5 q=47.1 size=    2048KiB time=00:00:04.44 bitrate=3777.3kbits/s speed=0.0124x elapsed=0:05:58.10    \nframe=  536 fps=1.5 q=37.4 size=    2304KiB time=00:00:04.45 bitrate=4241.5kbits/s speed=0.0124x elapsed=0:05:58.62    \nframe=  537 fps=1.5 q=45.5 size=    2304KiB time=00:00:04.45 bitrate=4233.6kbits/s speed=0.0124x elapsed=0:05:59.13    \nframe=  537 fps=1.5 q=45.5 size=    2304KiB time=00:00:04.45 bitrate=4233.6kbits/s speed=0.0124x elapsed=0:05:59.71    \nframe=  538 fps=1.5 q=46.8 size=    2304KiB time=00:00:04.46 bitrate=4225.7kbits/s speed=0.0124x elapsed=0:06:00.22    \nframe=  539 fps=1.5 q=46.9 size=    2304KiB time=00:00:04.47 bitrate=4217.8kbits/s speed=0.0124x elapsed=0:06:00.74    \nframe=  540 fps=1.5 q=36.9 size=    2304KiB time=00:00:04.48 bitrate=4210.0kbits/s speed=0.0124x elapsed=0:06:01.27    \nframe=  540 fps=1.5 q=36.9 size=    2304KiB time=00:00:04.48 bitrate=4210.0kbits/s speed=0.0124x elapsed=0:06:01.81    \nframe=  541 fps=1.5 q=46.5 size=    2304KiB time=00:00:04.49 bitrate=4202.2kbits/s speed=0.0124x elapsed=0:06:02.35    \nframe=  542 fps=1.5 q=47.0 size=    2304KiB time=00:00:04.50 bitrate=4194.4kbits/s speed=0.0124x elapsed=0:06:02.90    \nframe=  542 fps=1.5 q=47.0 size=    2304KiB time=00:00:04.50 bitrate=4194.4kbits/s speed=0.0124x elapsed=0:06:03.44    \nframe=  543 fps=1.5 q=37.1 size=    2304KiB time=00:00:04.50 bitrate=4186.6kbits/s speed=0.0124x elapsed=0:06:03.96    \nframe=  543 fps=1.5 q=37.1 size=    2304KiB time=00:00:04.50 bitrate=4186.6kbits/s speed=0.0124x elapsed=0:06:04.48    \nframe=  544 fps=1.5 q=44.3 size=    2304KiB time=00:00:04.51 bitrate=4178.9kbits/s speed=0.0124x elapsed=0:06:05.00    \nframe=  546 fps=1.5 q=46.1 size=    2304KiB time=00:00:04.53 bitrate=4163.5kbits/s speed=0.0124x elapsed=0:06:05.52    \nframe=  546 fps=1.5 q=46.1 size=    2304KiB time=00:00:04.53 bitrate=4163.5kbits/s speed=0.0124x elapsed=0:06:06.06    \nframe=  547 fps=1.5 q=46.1 size=    2304KiB time=00:00:04.54 bitrate=4155.9kbits/s speed=0.0124x elapsed=0:06:06.59    \nframe=  548 fps=1.5 q=37.6 size=    2304KiB time=00:00:04.55 bitrate=4148.3kbits/s speed=0.0124x elapsed=0:06:07.12    \nframe=  548 fps=1.5 q=37.6 size=    2304KiB time=00:00:04.55 bitrate=4148.3kbits/s speed=0.0124x elapsed=0:06:07.65    \nframe=  548 fps=1.5 q=37.6 size=    2304KiB time=00:00:04.55 bitrate=4148.3kbits/s speed=0.0124x elapsed=0:06:08.17    \nframe=  548 fps=1.5 q=37.6 size=    2304KiB time=00:00:04.55 bitrate=4148.3kbits/s speed=0.0123x elapsed=0:06:08.68    \nframe=  548 fps=1.5 q=37.6 size=    2304KiB time=00:00:04.55 bitrate=4148.3kbits/s speed=0.0123x elapsed=0:06:09.20    \nframe=  549 fps=1.5 q=45.1 size=    2304KiB time=00:00:04.55 bitrate=4140.7kbits/s speed=0.0123x elapsed=0:06:09.74    \nframe=  551 fps=1.5 q=46.0 size=    2304KiB time=00:00:04.57 bitrate=4125.6kbits/s speed=0.0124x elapsed=0:06:10.28    \nframe=  552 fps=1.5 q=46.0 size=    2304KiB time=00:00:04.58 bitrate=4118.1kbits/s speed=0.0124x elapsed=0:06:10.81    \nframe=  553 fps=1.5 q=37.4 size=    2304KiB time=00:00:04.59 bitrate=4110.6kbits/s speed=0.0124x elapsed=0:06:11.32    \nframe=  553 fps=1.5 q=37.4 size=    2304KiB time=00:00:04.59 bitrate=4110.6kbits/s speed=0.0123x elapsed=0:06:11.84    \nframe=  554 fps=1.5 q=44.6 size=    2304KiB time=00:00:04.60 bitrate=4103.2kbits/s speed=0.0124x elapsed=0:06:12.36    \nframe=  555 fps=1.5 q=46.1 size=    2304KiB time=00:00:04.60 bitrate=4095.8kbits/s speed=0.0124x elapsed=0:06:12.90    \nframe=  556 fps=1.5 q=37.2 size=    2304KiB time=00:00:04.61 bitrate=4088.4kbits/s speed=0.0124x elapsed=0:06:13.41    \nframe=  556 fps=1.5 q=37.2 size=    2304KiB time=00:00:04.61 bitrate=4088.4kbits/s speed=0.0123x elapsed=0:06:13.93    \nframe=  558 fps=1.5 q=46.8 size=    2304KiB time=00:00:04.63 bitrate=4073.7kbits/s speed=0.0124x elapsed=0:06:14.45    \nframe=  559 fps=1.5 q=37.5 size=    2304KiB time=00:00:04.64 bitrate=4066.4kbits/s speed=0.0124x elapsed=0:06:14.97    \nframe=  559 fps=1.5 q=37.5 size=    2304KiB time=00:00:04.64 bitrate=4066.4kbits/s speed=0.0124x elapsed=0:06:15.53    \nframe=  559 fps=1.5 q=37.5 size=    2304KiB time=00:00:04.64 bitrate=4066.4kbits/s speed=0.0123x elapsed=0:06:16.06    \nframe=  560 fps=1.5 q=44.7 size=    2304KiB time=00:00:04.65 bitrate=4059.1kbits/s speed=0.0123x elapsed=0:06:16.58    \nframe=  561 fps=1.5 q=46.9 size=    2304KiB time=00:00:04.65 bitrate=4051.8kbits/s speed=0.0124x elapsed=0:06:17.12    \nframe=  562 fps=1.5 q=47.0 size=    2304KiB time=00:00:04.66 bitrate=4044.6kbits/s speed=0.0124x elapsed=0:06:17.65    \nframe=  563 fps=1.5 q=37.8 size=    2304KiB time=00:00:04.67 bitrate=4037.4kbits/s speed=0.0124x elapsed=0:06:18.17    \nframe=  564 fps=1.5 q=45.2 size=    2304KiB time=00:00:04.68 bitrate=4030.2kbits/s speed=0.0124x elapsed=0:06:18.70    \nframe=  566 fps=1.5 q=47.1 size=    2304KiB time=00:00:04.70 bitrate=4015.9kbits/s speed=0.0124x elapsed=0:06:19.23    \nframe=  566 fps=1.5 q=47.1 size=    2304KiB time=00:00:04.70 bitrate=4015.9kbits/s speed=0.0124x elapsed=0:06:19.76    \nframe=  567 fps=1.5 q=37.3 size=    2304KiB time=00:00:04.70 bitrate=4008.8kbits/s speed=0.0124x elapsed=0:06:20.27    \nframe=  568 fps=1.5 q=45.7 size=    2304KiB time=00:00:04.71 bitrate=4001.7kbits/s speed=0.0124x elapsed=0:06:20.82    \nframe=  568 fps=1.5 q=45.7 size=    2304KiB time=00:00:04.71 bitrate=4001.7kbits/s speed=0.0124x elapsed=0:06:21.34    \nframe=  570 fps=1.5 q=47.0 size=    2304KiB time=00:00:04.73 bitrate=3987.6kbits/s speed=0.0124x elapsed=0:06:21.85    \nframe=  571 fps=1.5 q=47.2 size=    2304KiB time=00:00:04.74 bitrate=3980.6kbits/s speed=0.0124x elapsed=0:06:22.40    \nframe=  572 fps=1.5 q=37.5 size=    2304KiB time=00:00:04.75 bitrate=3973.6kbits/s speed=0.0124x elapsed=0:06:22.93    \nframe=  572 fps=1.5 q=37.5 size=    2304KiB time=00:00:04.75 bitrate=3973.6kbits/s speed=0.0124x elapsed=0:06:23.46    \nframe=  573 fps=1.5 q=45.1 size=    2304KiB time=00:00:04.75 bitrate=3966.7kbits/s speed=0.0124x elapsed=0:06:23.99    \nframe=  573 fps=1.5 q=45.1 size=    2304KiB time=00:00:04.75 bitrate=3966.7kbits/s speed=0.0124x elapsed=0:06:24.58    \nframe=  573 fps=1.5 q=45.1 size=    2304KiB time=00:00:04.75 bitrate=3966.7kbits/s speed=0.0124x elapsed=0:06:25.12    \nframe=  573 fps=1.5 q=45.1 size=    2304KiB time=00:00:04.75 bitrate=3966.7kbits/s speed=0.0123x elapsed=0:06:25.66    \nframe=  575 fps=1.5 q=47.1 size=    2304KiB time=00:00:04.77 bitrate=3952.8kbits/s speed=0.0124x elapsed=0:06:26.21    \nframe=  575 fps=1.5 q=47.1 size=    2304KiB time=00:00:04.77 bitrate=3952.8kbits/s speed=0.0123x elapsed=0:06:26.76    \nframe=  576 fps=1.5 q=47.1 size=    2304KiB time=00:00:04.78 bitrate=3945.9kbits/s speed=0.0123x elapsed=0:06:27.31    \nframe=  576 fps=1.5 q=47.1 size=    2304KiB time=00:00:04.78 bitrate=3945.9kbits/s speed=0.0123x elapsed=0:06:27.88    \nframe=  576 fps=1.5 q=47.1 size=    2304KiB time=00:00:04.78 bitrate=3945.9kbits/s speed=0.0123x elapsed=0:06:28.40    \nframe=  577 fps=1.5 q=37.9 size=    2304KiB time=00:00:04.79 bitrate=3939.1kbits/s speed=0.0123x elapsed=0:06:28.92    \nframe=  578 fps=1.5 q=44.7 size=    2304KiB time=00:00:04.80 bitrate=3932.2kbits/s speed=0.0123x elapsed=0:06:29.54    \nframe=  578 fps=1.5 q=44.7 size=    2304KiB time=00:00:04.80 bitrate=3932.2kbits/s speed=0.0123x elapsed=0:06:30.10    \nframe=  578 fps=1.5 q=44.7 size=    2304KiB time=00:00:04.80 bitrate=3932.2kbits/s speed=0.0123x elapsed=0:06:30.64    \nframe=  578 fps=1.5 q=44.7 size=    2304KiB time=00:00:04.80 bitrate=3932.2kbits/s speed=0.0123x elapsed=0:06:31.23    \nframe=  580 fps=1.5 q=47.1 size=    2304KiB time=00:00:04.81 bitrate=3918.6kbits/s speed=0.0123x elapsed=0:06:31.76    \nframe=  581 fps=1.5 q=39.4 size=    2304KiB time=00:00:04.82 bitrate=3911.9kbits/s speed=0.0123x elapsed=0:06:32.32    \nframe=  581 fps=1.5 q=39.4 size=    2304KiB time=00:00:04.82 bitrate=3911.9kbits/s speed=0.0123x elapsed=0:06:32.89    \nframe=  582 fps=1.5 q=44.4 size=    2304KiB time=00:00:04.82 bitrate=3911.9kbits/s speed=0.0123x elapsed=0:06:33.43    \nframe=  583 fps=1.5 q=46.9 size=    2304KiB time=00:00:04.84 bitrate=3898.4kbits/s speed=0.0123x elapsed=0:06:34.01    \nframe=  584 fps=1.5 q=47.0 size=    2304KiB time=00:00:04.84 bitrate=3898.4kbits/s speed=0.0123x elapsed=0:06:34.62    \nframe=  584 fps=1.5 q=47.0 size=    2304KiB time=00:00:04.85 bitrate=3891.7kbits/s speed=0.0123x elapsed=0:06:35.16    \nframe=  585 fps=1.5 q=46.9 size=    2304KiB time=00:00:04.85 bitrate=3885.0kbits/s speed=0.0123x elapsed=0:06:35.68    \nframe=  586 fps=1.5 q=39.2 size=    2304KiB time=00:00:04.86 bitrate=3878.4kbits/s speed=0.0123x elapsed=0:06:36.22    \nframe=  587 fps=1.5 q=44.6 size=    2304KiB time=00:00:04.87 bitrate=3871.7kbits/s speed=0.0123x elapsed=0:06:36.75    \nframe=  587 fps=1.5 q=44.6 size=    2304KiB time=00:00:04.87 bitrate=3871.7kbits/s speed=0.0123x elapsed=0:06:37.26    \nframe=  590 fps=1.5 q=47.0 size=    2304KiB time=00:00:04.90 bitrate=3852.0kbits/s speed=0.0123x elapsed=0:06:37.77    \nframe=  590 fps=1.5 q=47.0 size=    2304KiB time=00:00:04.90 bitrate=3852.0kbits/s speed=0.0123x elapsed=0:06:38.31    \nframe=  592 fps=1.5 q=44.6 size=    2304KiB time=00:00:04.91 bitrate=3838.9kbits/s speed=0.0123x elapsed=0:06:38.82    \nframe=  592 fps=1.5 q=44.6 size=    2304KiB time=00:00:04.91 bitrate=3838.9kbits/s speed=0.0123x elapsed=0:06:39.34    \nframe=  595 fps=1.5 q=46.2 size=    2304KiB time=00:00:04.94 bitrate=3819.5kbits/s speed=0.0124x elapsed=0:06:39.87    \nframe=  595 fps=1.5 q=46.2 size=    2304KiB time=00:00:04.94 bitrate=3819.5kbits/s speed=0.0123x elapsed=0:06:40.40    \nframe=  596 fps=1.5 q=43.8 size=    2304KiB time=00:00:04.95 bitrate=3813.1kbits/s speed=0.0123x elapsed=0:06:40.92    \nframe=  597 fps=1.5 q=45.1 size=    2304KiB time=00:00:04.95 bitrate=3813.1kbits/s speed=0.0123x elapsed=0:06:41.44    \n[mp4 @ 0000019668329bc0] Starting second pass: moving the moov atom to the beginning of the file\n[out#0/mp4 @ 0000019668329ac0] video:2490KiB audio:0KiB subtitle:0KiB other streams:0KiB global headers:2KiB muxing overhead: 0.431505%\nframe=  600 fps=1.5 q=46.1 Lsize=    2501KiB time=00:00:04.98 bitrate=4111.2kbits/s speed=0.0124x elapsed=0:06:41.99    \nx265 [info]: frame I:      3, Avg QP:39.85  kb/s: 23474.24\nx265 [info]: frame P:    154, Avg QP:38.30  kb/s: 9930.68 \nx265 [info]: frame B:    443, Avg QP:44.94  kb/s: 1909.40 \nx265 [info]: Weighted P-Frames: Y:0.0% UV:0.0%\n\nencoded 600 frames in 401.87s (1.49 fps), 4076.02 kb/s, Avg QP:43.21\n",
  "seconds": 402.13288736343384,
  "probe_out": {}
}